<?xml version="1.0" encoding="UTF-8"?>
<svg id="Layer_1" xmlns="http://www.w3.org/2000/svg" version="1.1" viewBox="0 0 466.9 707">
  <!-- Generator: Adobe Illustrator 30.2.1, SVG Export Plug-In . SVG Version: 2.1.1 Build 1)  -->
  <defs>
    <style>
      .st0 {
        fill: #f1eeec;
      }
    </style>
  </defs>
  <path class="st0" d="M88.8,705.2h0l-.4.5-.02.19c-.1-.21-.34-.61-.58-.69h0l-.4.5-.1,1.1.6.2.4-.24v.04l.6.2.5-.3.1-.6c-.12-.23-.42-.83-.7-.9Z"/>
  <path class="st0" d="M87.5,704.2v-.6c-.21-.13-.49-.37-.7-.5h-.3v.5c-.21-.13-.49-.37-.7-.5h-.3c-.08.37.14,1.07.3,1.4l.5.2c.14-.24.25-.72.2-1l.3.8.5.2.2-.5h0Z"/>
  <path class="st0" d="M93.8,292.6c.03.24-.05.76-.1,1,.58-.92,1.31-2.17,1-3.3-.85-.62-2.94-.61-3.9-.7-.86.01-1.67.67-2.3,1.2,1.07.3,2.32.09,3.4.2l1.1.9c-.33.47-.13,1.17-.3,1.7.32-.54.85-1.34.96-1.98l.34.28c-.1.16-.25.5-.2.7h0Z"/>
  <path class="st0" d="M465.8,510.8l-.1.1h0l.1-.1c-.02-1.58.12-4-.4-5.5l.3-1.6-.6-2.3c-.97-2.22-1.3-5.82-2.8-7.8-.2-.98-12-9.76-13-10.6l-5.7-2.9-14.4-3.5v.24l-1-.24v.5c.76-.05,1.66-.02,2.2.6l-1.75.83c-.98-.14-2.88-.96-3.75-1.43-1.56-.64-4.15-.51-5.8-.5-.98-.08-2.12-.82-3.1-.9-.24.15-.74.08-1,0l-1,.3.37.56c-3.11-.35-6.8.69-8.77,3.24-.76,1.48-1.48,3.69-1.9,5.3-.06.74-.35,2.34-.9,2.9-.6.63-1.68,2.03-2.1,2.8l.13.86c-.33-.53-1.05-1.65-1.73-1.76-.83-.08-2.32-.3-3.1-.1-.18.03-.79.07-.89.24-.64-.53-2.73-4-3.21-4.74-.4-.27-1.34-.86-1.8-1-.35-.29-1.41-1.3-1.9-1.3l-.62.13-.38-.13c-.48.09-2.34.56-2.8.4l-.1-.9c.38-1.14,1.45-1.7,2.5-2.1.67-.46,4.06-5.73,4.6-6.5,1.21-.45,4.77-4.15,5.7-5.1.55-.5,1.55-.63,2.2-.9,3.46-7.28-.95-14.7-3.2-21.5-.13-1.56-1.01-3.2-2.3-4.1l.4-.5c-.26-.17-1.47-1.15-1.8-1.1l-.3-.3c-.1-.61-.16-1.5-.3-2.1-.53-.8-1.54-1.42-2.5-1.5-.67-.04-3.85-2.88-4.4-3.3-.81-.4-2.64-2.88-3.2-3.6-.43-.31-1.78-.44-2.3-.5-.62-.32-1.84-1.77-2.3-2.3-.57-.31-2.36-1.15-2.5-1.9h0c-.72-1.12-3.25-4.98-3.8-6.1l-1.3-.6-.71.13-.29-.13c-1.39.4-9.03,1.18-9.73,2.71-.28-.08-.7-.59-.87-.81-.62-.49-2.17-1.7-3-1.7-.61.05-1.78.01-2.4.1l-1.3.6-.37.69c-.23-.18-.67-.35-.93-.49.5-.31,3.4-2.33,3.93-2.39l1.97.29c.26.2,1.24,1.4,1.6,1.4l.64-.16c.02.07.3.14.36.16.83-.31,2.52-.48,3.4-.4h1v-.03h0v.04c1.74.26,6.16-2.52,7.9-1.6,2.99,1.53,5.28,8.01,8.9,8.5l1.2.2c.23-.14.76-.06,1,0,.93-.08,2.31-1.24,3.15-1.52.4.03,2.3,1.48,2.65,1.72.5.09,1.33.54,1.7.9-.07.91-.92,2.96-1.3,3.8.24-.19,1.12-.87,1.3-1.1l.6-2.6-.16-.52.56.42c-.07.91-.92,2.96-1.3,3.8.24-.19,1.12-.87,1.3-1.1l.6-2.6-.8-2.6c-3.19-4.78-10.32-15.54-13.3-20.3-1.04-2.68-1.86-7.33-3.2-9.9,1.35-4.53,2.89-5.06,6.8-7.1l-1.7-1.6-4.2-1.6-.13.33h0l.13-.33c-1.02-.33-2.52-1.24-2.9-2.3-.08-.67-.29-2.45-.7-3-.48-.17-1.37-.61-1.6-1.1-.29-.32-1.99-.68-2.4-.8-.51-.52-1.03-1.74-1.6-2.2.08-.19.25-.89.3-1.1-1.39-.32-1.34-2.19-1.3-3.3-.26-1.01-.95-2.96-1.4-3.9-.27-.53-.85-1.61-1.3-2-1.15-.75-2.63-1.57-2.1-3.2.06-.53-.42-1.47-.7-1.9-.28-.93-10.44-7.12-11.4-7.8l-.4-.2-9.6-3.1-2.3-1.5c-2-.19-3.43-.47-4.5-2.4l-.19,1.11s-.8-1.1-.81-1.11l-.37,2.15c-.06-.11-.17-.34-.23-.45l-.2-.1c-.11.16-.14.48-.3.6h-.25l-.25-.5-.2-.1c-.04.08-.13.25-.14.33-.17-.13-.23-.64-.26-.83.72-.29,1.75-.73,1.9-1.6-.48-.58-.85-1.44-.9-2.2-.19-.3-.49-.73-.4-1.1h1v-.6c-.8-.39-3.01-1.1-3.4-2h0c-2.59-2.22-3.52-8.81-4.5-11.9-.23.08-.68.28-.89.4h0c.21-.12.67-.31.89-.4-.14-.59-.9-2.82-.6-3.4l-.3-.3h0c-.19-1.11-.24-2.7-.1-3.8-.12-.67-1.23-1.83-1.7-2.3-.08-.24-.49-.49-.7-.6h0c-.17-.49-.42-1.49-.5-2-.5-.98-1.1-2.66-1.5-3.7h0c-.02-.66-.43-.99-1-1.2-.62-1-.74-2.95-.9-4.1-.18-.83-1.14-1.83-1.2-2.7.17-.7.61-1.58.7-2.3l-.3-.8c-.28-.16-.65-.57-.7-.9l.3-1.1c-.43-.5-1.28-1.54-1.6-2.1-.22-.81-.56-1.78-.7-2.6.16-.71.82-1.33.7-2.1l-.1-1.4-1.2-2.1-.3-1.8c.43-2.63.5-7.24,0-9.9-.15-.2-.58-.49-.8-.6l-.2-.4c.23-.3.5-.91.4-1.3-.26-.23-1.02-.92-1.3-1.1v-.6l.6-.5c-.52-.4-.9-1.14-.9-1.8l.3-.5v-.6l-3.2-2.3c-.92-.1-2.09-.17-2.97.18l-.23-.18v-.5h.9c-.22-1.03-.91-2.26-2.1-2.3-.02.02-.22.21-.22.24-.16-.12-.59-.21-.78-.24-.15.1-.33.44-.4.6h0c-.1-.71-.83-1.27-1.4-1.6l-.5-1c-.35-2.58-6.45-8.92-7.5-11.2l-.82.31h0l.82-.31h0l-2.6-5.3c-.58-.75-1.51-1.28-2.3-1.7-.11-.64-.16-1.53-.5-2.1-2.2-.88-8.72-1.24-10.4-3.2h0l-2.5-2.1c-1.51-.3-3.39-1.57-4.4-2.7-.09.12-.33.47-.47.53l-.53-.53c-.12.2-.43.54-.63.66l-.07-.06-.77.19-.23-.19-.53.13-.27-.13c.19-.25.51-1.49.6-1.8-.71-.17-1.72-1.84-2.1-2.4-.09-.54-8.29-.91-8.8-1l-.13.07-.87-.07c-1.29.37-2.14,2.18-3.2,2.9.35.38.52,1.21.6,1.7l-1.2.2c-.48.5-1.21,1.67-1.5,2.3-1.5,1.38-4.76,2.74-6.8,2.7v.07h0v-.07c-.1.02-.3.03-.4,0-.44-.35-.96-1.45-1.4-1.8l-8.6-.7c-.32-.3-.94-.95-1.2-1.3l-.5-.1-.41.21-.09-.11-.5-.1c-1.06.86-2.97.13-4.1-.2h0l-2.6-.7h0c-2.45-.87-4.9-1.43-7.46-.54l-.14-.06c-.29-.43-.55-1.11-.9-1.5-.19-.02-.75.05-.95.07l-.05-.07c-.17-.02-.44.04-.6,0-.18-.38-.69-1.32-.9-1.7l-1.04-.08h0l1.04.08-.81-1.45c1.79,1.79,4.98,1.46,7.28,1.37,1.56.39,8.01,2.8,9.57,2.34,2.1.26,4.45-1.03,6.06-2.26.59-.53,3.46-.53,4.2-.6l.7-.5c.7-1.22.88-3.74,1.7-4.9.43-.18,1.29-.58,1.7-.8l2.6-3,2.5-1.8c.1-.42.48-1.11.8-1.4,2.03-.88,3.61.32,5.3,1.2l1.1.2c.24-.14.75-.07,1,0,.87.04,3.4-1.85,4.1-2.3.76-.15,2.65-.57,3.3-1,.35-1.25,2.47-3.34,3.4-4.2v-.5c-.97-.92-2.77-2.23-3.7-3.2-.57-.83-4.43-.79-5.3-.9l-.3-.6c-.36-.22-.92-.32-1.3-.5-.1-.19-.26-1.27-.3-1.5l-.2-.2h-1.1c1.37-1.6,2.44-4.46,1-6.3l-1.6-.2c-.38-.38-1.22-1.06-1.7-1.3l-.77.14-.23-.14c-.61.02-1.63.42-2.1.8-.17.4-.58,1.1-.9,1.4-1.3.59-9.88,5.45-11.2,5.2-1.26.87-3.15,2.12-4.7,1.2l-.31-.41.71.21.43-.17.57.17c3.81-.91,6.61-7.33,10.6-7.9h0l11-1.7-.03-.11h0l.03.11c.09,0,2.2-.29,2.2-.2.12.23.45.53.7.6l.4-.2.07-.18c.05.16.39.31.53.38l.4-.2c1.23-3.7,1.28-2.54,4.1-4.5l.8-1.8c1.5-1.22,5.42-3.27,5.6-5.5,1.04-1.18,1.36-1.65.8-3.2-.21-1.43,1.09-2.6,1.6-3.8.06-.29.59-4.18.8-4.3h0c.71-2.44,4.09-3.28,5.4-5.2.49-1.02,1.69-2.92,2.4-3.8.63-.46,1.98-1.58,2.3-2.3.06-.36.31-1.69.5-2,.22-.3.94-1.27,1.1-1.6.12-.72-.2-1.57-.5-2.2-.62-4.32,4.1-10.12,6.1-13.7-.08-.1.79-1.61.8-1.7l-.1-.7-.9-.7c-.58-2.1.78-5.83,1.2-7.9l-.2-.6.2.6c2.9-7.74,2.5-8.9,9.1-14.5.2-2.65,2.77-4.99,4.3-6.9-.32-.06-.81-.32-1-.6l-.1-.8.3-.6.7-.1c-.5-.53-1.59-1.8-1.8-2.5.06-.36.26-1.25.2-1.6l-.8-1.4c-.11-.77-.31-2.33-.4-3.1.23-1.34-3.67-5.07-4.4-6-.11-.26-.51-1.37-.8-1.5l-.6-.1-.27.23-.13-.13-.6-.1-.56.49c-.39-.55-.89-1.52-.94-2.19-1.29.04-5.75-.45-6.9,0-.36.22-2.94,2.39-3.38,2.25-.44-.07-2.22-1.29-2.62-1.55-.57-.11-1.44-.01-2-.1-.78.08-1.2.92-1.43,1.57l-.67-.37-.4.1-.15.15-.45-.25-.4.1c-.08.08-.85.88-.94.89-.15-.13-.49-.38-.66-.49l-.3.52c-.16-.14-.52-.42-.7-.52l-.18.31c-.48-.26-1.66-.88-2.22-.81l-.17.11s-.8-.1-.83-.11c-.13.09-.68.41-.72.58l-.38-.58c-1.11.33-4.46-1.05-5.5-1.4l-.41.21-.59-.21-.89.44-.11-.14h-.4l-.38.28-.22-.28h-.4l-.4.3c-.14-.22-.52-.93-.8-1h-4c-4.58.06-4.41-.7-8.1,2.4-.68.26-2.17.71-2.9.5l-6.2-2.2-3.5-2.3c-1.22,0-6.3-.35-7.4-.1-.12.08-1.29.88-1.4.9l-.5-.2-.4.1-.05.12s-.52-.21-.55-.22l-.4.1-.4.9.2,1c-.2.96-1.02,1.95-1.8,2.5-.63.36-2-.31-2.6-.5l.18.42-1.18-.42.24.54-.95.24.11-.28-2.8.7-3.3,2.5h0c-3.91,2.85-3.67,3.68-8.8,2.9-1.13-.11-4.45.73-5.6.6l.09.08-1.09-.08c.55.5,2.01,1.82,2.3,2.5-.68.33-1.69.63-2.3,1.1-.49.36-1.21,1.47-1.5,2-.31.21-1.24.28-1.6.3v.3c-.45.76-1.17,1.72-2.06,1.98l-1.54-.48c.72-.86,1.45-2.58,1.9-3.6-.66-.64-1.77-.49-2.6-.5v-.7c.71-.06,2.08.03,2.7.4l.3-.1-.12-.2.83.3.3-.1-.5-.8c.89-1.72,2.2-1.7,3.9-1.8-.25-.22-.54-.87-.6-1.2l1.6-2.7c1.55-.96,2.91-3,3.7-4.6l-.2-1.1c-.21.03-.8.08-.95.26l-.05-.26c-.56-.14-2.35,1.14-2.8,1.4-.28.37-.93,1.02-1.3,1.3l-2.4-.5-.6-.8c-.33-.12-.86-.33-1.18-.06-.56-.52-2.21.69-2.72.86-.82,1.07-2.79,2.7-4,3.3-.88,1.4-1.81,3.23-3.54,3.69.19-.72.58-1.69,1.04-2.29.83-.86,3.37-3.52,4.5-3.9.14-.56.43-1.7.59-2.26l.71.16c.25-.15.74-.09,1,0l3-.9c.42-.02,1.43-.1,1.8-.3.52-.41,3.86-3.84,4.57-3.73l1.03,1.03-.6,1.3.2.9.7.4.74-.15.26.15,1-.2c.45-.39,1.47-2.07,1.8-2.6.64.2,7.02-8.75,7.5-9.3.43-.78.54-2.21.1-3l-.5-.1-.38.43-.12-.33-.5-.1c-1.45,1.65-2.83,4.29-5.09,5l-.91-.3.6-1.1-.8-1.1-1.5-.4-.26.2-.74-.2-2.46,1.91c-.67.1-3.3-1.97-3.84-2.31l.16.81-1.16-.81.27,1.33c-.93-.52-1.68-1.74-2.47-2.43l-.83.17-.17-.17c-.66.02-2.01.65-2.58.95-2.05-.06-3.59-3.06-4.61-4.5.86.71,1.77,2.82,2.89,3.25l.73-.19.27.19,3.26-.86c.6.06,2.98,1.37,3.54,1.66h2.3c.56-.25.98-1.45,1.5-1.73.46.19,1.49.54,2,.53l-.03-.18c.15.09.86.16,1.03.18-.51-1.36.26-2.54,1-3.6-1-1.7-1.21-2.76-3.5-2.5-.62-.39-1.13-1.22-1.25-1.94.32.36,1.31.43,1.75.44l.7.4-.4.5c.2.12.8.56,1,.7l.07-.65c.15.1.77.54.93.65.11-.66.04-1.66.5-2.2.25-.09,3.19-2.19,3.5-2.4,1.04-.07,2.36-.67,3.1-1.4.9-4.3,1.8-4.21,5.4-6.1,1.7-1.46,11.26-8.99,12.3-10.7l.9-1.5c.08-.57.35-1.84.7-2.3,3.45-4.4,6.06-3.65,10.2-6.2,2.99-3.43,6.53-8.19,6.8-12.9l.4-.1.5-.5c.28-.71.2-1.87-.4-2.4-.21.03-.58.18-.75.31l-.25-.31c-.22.02-.61.19-.78.33l-.72-.43c-.85-1.19-.44-3.04,0-4.3.2-.45,1.25-1.45,1.6-1.8.57-.82.91-2.43,1.7-3.1.06-1.56,1.34-3.21,1.4-4.8l-1.6-.7-.69.13-.31-.13c-.44.07-3.32.7-3.7.6l-2.4-1.8-.88.09-.12-.09c-1.44-.12-4.02,1.05-5.4,1.2-.62-.62-.41-1.77-.8-2.5l-.8-.1-.2.11h0l-.8-.11c-.61.13-1.47,1.44-1.8,1.9.42,1.33,1.49,2.76,2.9,3.1l-.6,1.8c-.14.17-2.73-1.15-2.9-1.2l-.55.21-.45-.21c-.32.11-2.77,1.14-3.07,1.03l-1.03-1.03c.18-.02.5-.47.6-.6-1.73-1.1-4.6-.25-6.5,0-1.26.4-3.97,2.55-5,3.4-1.16.77-4.13,1.34-5.5,1.51-.89-.18-3.91-.74-4.75-.57-.14-.21-1.06-1.79-.95-2.05l-.1.1c-.23.02-.63.21-.82.35-.09-.09-.09-.34-.08-.45l-.1.1c-.25.02-.7.26-.9.4-.31.62-.63,2.07-1.3,2.38-1.01-.35-2.35-.11-3.4-.18l-.5.3-.4,1.2-.09.05-.81-.45-.5.1-.09.13-.41-.23-.5.1c-.49.48-.61,1.35-1.19,1.71-.43-.54-1.2-1.14-1.91-1.21-.08.02-.44.1-.51.15l-.49-.15c-1.1.27-2.88,1.34-3.6,2.2-.23.21-1.96,2.33-2.3,2.3v1.2c-.08.1-1.39,1.95-1.46,1.96.77-1.82,1.21-4.29,2.76-5.66l-.1-.9.1-.1v-1c-1.61-1.36-4.05-2.86-6.2-3l-.32.14-.68-.14-1.2.5c-.63,1.28-.63,3.23-1.3,4.5-.58.8-1.83,1.21-2.5,1.9l-.3,1.4c-.37,0-2.65,2.72-2.93,2.99.47-1.3,1.58-3.22,1.93-4.59.46-.45,1.93-1.91,2.3-2.4.08-.63.38-1.46.3-2.1-.25-.19-.8-.43-1.1-.5-.44-.4-1.53-1.33-2.1-1.5-.44-.63-1.59-2.26-2.3-2.6l.23,1.15c-.16-.35-.93-.93-1.23-1.15l.3,1.5c-.34.67-.87,1.39-.85,2.19-.17-.64-.37-1.83-.35-2.49-.36-.58-1.31-1.46-1.9-1.8l-6.1-1.3-.16.18-.84-.18-.8.9c-.37,1.56-.34,3.75-.8,5.3h.3c-.42,2.29-2.7,2.68-4.1,4-.11.51-.11,1.87-.1,2.4l3.48,3.08-.33.2-.55-.28-2.6,1.6c.15.12.58.46.7.6h.3v.7h-.6v.6c.26.1.74.1,1,0,.33.12.85.09,1.17-.07l.03.07-.1.7c.18.48,1.31,1.38,1.7,1.7l-.97.05c-.82-.54-3.04-2.15-3.93-2.45l-.2.2v.23c-.17-.12-.59-.41-.8-.43l-.2.2c-.04.49.18,1.13,0,1.6-.61,1.31-1.27,2.34-.3,3.7h-.9c.1.8.31,1.88.7,2.6.16.26,1.04,1.38,1,1.7.44.15,1.63,2.12,1.9,2.5.26.27.83.65,1.2.7.27.25,1.01.96,1.4,1l.5-.1.05-.08.45.18.5-.1c.16-.28.56-.96.88-1.08l2.92.58-.6.5-1.4.2-.58.48c-.48-.24-1.24-.08-1.72-.18-.31,0-1.64.22-1.9,0-.44-.4-1.67-1.55-2.3-1.6-.03.02-.4.2-.43.22l-.57-.22c-.57.25-1.34.71-1.71,1.23l-.29-.23c-.93-.1-2.11-.17-3,.2-.41.17-2,1.68-2.5,1.3-.6-.44-2.28-1.66-3-1.8l-.62.15-.38-.15-.8.2v1.5c.25.32,2.12,3.77,2.6,3.7h.6c-.14.51-.29,1.38-.4,1.9.66.06,1.31.62,1.6,1.2l-.3.5c.71.84,1.92.69,2.9.67v.63c-.65.6-1.99.52-2.6,1.2l1,.6v.6h-.6c.48.88.67,2.04.3,3h.3l-1.04,1.41c-.09.04-1.06-.38-1.16-.41l-.31.28-.69-.28-.29.26-.81-1.76-1.8-.5-.17.23-.83-.23-.9,1.2c.18.41,1.87,3.05,1.6,3.5-.4.27-.4.85-.7,1.2l1.03-.05-.03.05c.49-.07,1.46-.06,1.9.2l.7,1c-.1.18-.33.41-.4.6l1.2.2,2,2.5c.57.12,1.64.51,2,1,.54.08,1.78.29,2.1.8.26.53.52,1.61.5,2.2l-.4.6h-.9v.6c.92-.29,5.14,4.02,5.8,4.5.08.16.37.67.34.86l-.34-.66-2-.9c-.63-.54-1.88-2.21-2.8-2.2-.53-.43-1.43-1.31-2.18-.86-.51-.31-1.18.07-1.62.34-1.2-.43-1.8-2.53-3.01-2.98l-.11.59-.89-.59-.12.67-.08.03-.12.37-.28-.07-.3-.4-.3.1c-.03.15-.25.65-.2.8.16.32.19.85.5,1.1l3.1,1.4,2,2.1,1.4.6c.28.29.74.95.91,1.31-1-.31-2.88-1.16-3.71-1.81-.37-.46-1.46-1.84-1.9-2.2-.42-.14-2.36-1.09-2.8-.9l-.06.14c-.2-.15-.7-.15-.94-.14-.63,1.02-.7,3.27-1.5,4.2l.23.46c-.3.09-2.15-.93-2.43-1.06l-1.3-1.8.3-2.4h-1.7c-.34-.21-.95-.89-1.2-1.2l-.4.69-.6-.69c-.43.88-1.54,2.08-1.9,3,.04.13.13.39.2.5l.4.1-.5.9c.26.76,1.81,2.17,2.4,2.7l.7,1.4c-.06,1.04-.44,2.42-.11,3.45-.12-.07-.65-.05-.79-.05l.03.12c-.24-.13-.77-.13-1.03-.12.14.48.3,1.44.75,1.75-1.07-.45-1.57-1.99-1.75-3.05-.21-1.38-.7-3.32-.3-4.7-.93-.81-2.38-1.25-3.6-1.1-1.62-.2-3.31.97-3.6,2.6-.41,1.09-.1,2.72.2,3.8-.12.41-.07,1.28,0,1.7-.06.67-.28,2.65-.1,3.3.46.13,4.23.87,4.5,1.2.21.28.56.88.7,1.2.18.24.61.54.9.6-.14.35-.49,1.12-.75,1.39l-1.05-1.29s-.9.09-.91.11l-.09-.11c-.67-.13-2.15.78-2.7,1.1-.08.37.14,1.07.3,1.4l-1,1.1c-.2.54-.18,1.56,0,2.1.5.49,1.42.46,2,.8.98,1.2,1.43,3.24,2.3,4.5l1.6.3c-.12.26-.44.94-.7,1.1l1.6,1.9.58-.49.42.49,1.3-1.1c.85-.28,2.38-.1,3.2.2l1.5,1.2-.2.6c-.47-.01-2.18-.55-2.62-.3-.21-.26-3.46.48-3.78.5.06.31.17.79.25,1.09-.7-.33-1.41-1.32-1.75-1.99l-.5.3c-1.36-.94-3.12-3.72-4.9-3.9l-.33.17-.67-.17-.8.4c.16.47.14,1.33.3,1.8h-.7c-.36.81-.15,2.13-.2,3-.11.34-.74,1.65-.9,2-.35,1.31.44,2.9.5,4.2.48.4,1.83.46,2.3.9-.68.53-.77,1.61-.7,2.4.16.32.5.91.7,1.2-.04.28-.31.51-.5.7l-.2-.1.8,3.4,1.1.6.77-.12.23.12c.86-.12,2.94-.39,3.6-1,.08-.09,3.15-4.17,3.25-4.25.17.39.44,1.23.45,1.65-.17.47-1.1,1.13-1.5,1.4,1.16,0,2.47.79,3.6.9l.2-.15.8.15c1.68-.89,2.92-3.98,4.4-5.1l-.4,2.5c-1.23,1.65-5.69,3.71-7.57,4.43-.15-.06-.28-.6-.33-.73l-.4-.3-.52.52-.08-.22-.4-.3c-.43.49-1.24,1.15-1.8,1.5-.61.36-1.26,2.79-1.7,3.3l.4,1.2c.56.11,1.45,0,2,.1l1.61-.56c.9.21,2.33,1.39,3.32.99,1.13.39,2.53-.83,3.37-1.42.4-.09,1.07-.44,1.3-.8.18-.37.67-1.31,1.06-1.5l.44.2v.7c-1.34.22-2.38,1.7-2.8,2.9.3.65.94.82,1.3,1.4.19.35.75,1.49,1.1,1.7l2,.5v.6l-1.07.3c-1.49-.92-2.86-2.94-4.33-3.9l-.76.19-.24-.19c-1.8.27-3.84,1.43-4.6,3.15-.13-.29.62-2.34.7-2.65h-3.4l-.8-1.1c-2.33-.06-3.43-.15-4.96,1.85l-1.04-.05-.03.05-.97-.05c-.23.27-.4.85-.67,1.07-.34-.55-.61-1.46-1.03-1.97-.37-.26-1.11-.34-1.54-.23-.1-.12-.86,0-.99,0l-1.47-1.47-.82.18-.18-.18c-.64.03-1.6.6-2.2.72v-.52l1.2-.5.5-.8-.2-.7c-1.26-.55-3.59-.1-4.93.05.61-.66,2.14-1.23,2.43-2.15-.23-.86-1.25-1.42-1.7-2.2-.07-.44-.3-1.6,0-2,.3-.33.69-1.07.8-1.5l-.4-.9-.7-.2-.43.16-.57-.16-.16.06c.82-.52.94-1.68.96-2.56.86-2.13.52-4.91.1-7.1-.57-5.05.48-7.2-4.2-10.6-.15-.74-1.33-2.26-1.7-2.9-.7-.57-1.66-1.49-1.9-2.4-.12.27-.43.51-.7.6l-.04-.02-.26-.58s-.21.33-.23.33l-.07-.03-.07.13-.33.17-.6-.3c-.42.73-.67,1.93-1,2.7-.34.37-2.01,1.55-2.5,1.7-.2.5-.12,1.42.1,1.9.26.25.59.86.7,1.2l-.2,1.2c.44.57,1.22.79,1.89.62l-.59,1.78c-.37.37-.78,1.17-.8,1.7l.8,1.8c.65.94,2.4,2.52,2.2,3.78-.34-.38-1.93-2.78-2.5-2.78l-.2.56c-.09-.24-.59-.47-.8-.56l-.07.21c-.23.02-.84.08-1.02.24l.1-.25c-.3.02-.96.1-1.2.3-.56-.44-.94-1.36-1.5-1.8-.71-.38-2.56-1.31-3-2-.11-.62-.18-1.5-.4-2.1l-1-.7c-.22-.44-.82-1.18-1.2-1.5h-2v.7l.6.7c.03,1.12-.42,2.58-1.2,3.4,1.72.48,3.67,1.85,4.01,3.71-.13-.13-.84-.18-1.01-.21l-.11.14s-.83-.14-.89-.14c-.14.16-.48.57-.5.8l-.4.1-.1.4c.31.83.89,1.84,1.5,2.5-.26.06-.34.44-.6.5-.03.29.03.86.14,1.13-.55-.26-.86-1.09-1.04-1.63-.18-.17-2.56-4.09-2.9-3.9l-.5.2-.05.07c0-.08-.39-.24-.45-.27l-.5.2c-1.27,1.48-1.31,3.47.2,4.8h-2.9l.5,1.9,2,1.5c.46,5.48,2.55,5.17,7,6.8l.29-.25.71.25.8-.7h0c.24-.6-.19-1.93-.4-2.5-.01-.48.17-1.33.5-1.7.29-.08.8-.37,1.04-.56.16.51-.12,1.35-.24,1.86.43-.17,1.02-.9,1.26-1.28-.01.3-.18.99-.26,1.28.35-.17.85-.65,1.04-.98-.14.61.22,1.3.76,1.58-.02.31-.34.5-.6.6.26.14,1,.59,1.3.6v.6l-.7.5c.39.09,1.16-.2,1.51-.36l-.51.36c.47.14,1.27-.32,1.7-.4.88,1.3,3.82,2.93,4.41,4.43l-.21-.03c-.93-.66-1.69-2.03-2.6-2.7l-1.1-.2-.29.13-.71-.13c-.67.15-2.53,1.59-3.1,2,.1.73.8,1.11.9,1.8.08.87,2.09,3.39,2.6,4.1.85.28,1.99.18,2.87.1-.09.82-.83,1.39-1.57,1.6.31.82,1.11,2.37,1.6,3.1l.69-.52.31.52c.63-.42,1.48-1.3,2.3-1.2v.5c-.33.41-1.61,2.1-2,2.4v.6l1-.26v.26c.64-.23,7.21-1.6,7.4-2.3l-.6-.7v-.1c.16.11.49.64.6.8l.3-.5.3-.1.4.6.1-.17c.51,1.59-.04,4.11,1.3,5.37l.67-.38.33.38.7-.4c.42-.75.72-1.91,1.4-2.5l-.4-.6c.67-.48,1.01-1.67,1.3-2.4l-.48-1.35c.54.78,1.11,1.98.98,2.95l.3.2c1.75-.11,4.42.3,6.07-.33-.98.56-4.51,2.01-4.97,3.13-.18.37-.81,1.91-1.2,2.1-.18.48-.14,1.37-.7,1.6-.03.34.04,1.06.1,1.4l-1.2,1.8-.2,1.5.5,1.1.6.3.76-.12.24.12c3.98-.05,4.77-3.04,6.9-5.7.44-1.18,1.96-1.67,2.8-2.5l.4-1.2c.04-.44-.01-2.1.4-2.4.58-.06,2.17-.13,2.6-.6,1.32-1.17,3.64-2.95,3.05-4.96l.75,1.16c-.72,1.46-2.56,3.37-2.6,5.1l.6.9,3.9,1.2c.56.47,1.46,1.8,2,2.3.11-.02.76-.09.85-.15l.15.15c1.17-.25,3.67-.93,4.91-1.06l.69.46v.35c-.25-.19-.87-.11-1.15-.06-.17-.16-.85,0-1.05,0-.1.23-.36.74-.58.88-5.57.19-3.59-.74-7.72-2.58l-.4.25-.6-.25c-.29.18-.97.6-1.22.83-.26-.03-.81-.04-1.08-.03l-.02.03c-.23-.03-.75-.03-.98-.03-.87,1.55-2.82,3.63-3.5,5.3.19.29.63.75,1,.8.26.27.9.96,1.3,1,.1-.02.55-.1.63-.15l.37.15c.3-.02.91-.25,1.18-.37l.72.57c-.05.57-.15,1.73-.2,2.3.37.24,1.19.63,1.6.8.44.39,1.41.92,2,1l.29-.21.71.21.62-.45.08.05.61-.26.39.26c.33-.13.99-.43,1.3-.6v.2c-2.03,1.09-4.79,2.7-6.8.7-.64-.73-1.2-2.31-1.9-3l-1.2-.2c-.21.16-.77.05-1,0-1.32.32-2.87,1.34-3.6,2.5-.83,1.99-.58,4.99-2.3,6.5.24.23,1.06,1.14,1.4,1.2v.6c-.84.05-2.49.35-3.3.6l2.2.6c.27-.1.74-.13,1,0,1.13-.26,4.39-1.21,5.5-.6-.42.51-2.05,2.26-2.2,2.9.59.18,2.09.63,2.7.5v-.02s.96.02,1,.02l.8-1.4c.35-.16.84-.55,1.2-.2-1.84,2.62-5.49,2.71-8.3,3.1l-.6.7v.9c.47.99,2.29,1.82,3.22,2.23l-.4.15-.52-.17-1.1.4-.24.35c-.78-.3-1.74-.1-2.56-.15v.7l.8.1c.51.42.72,1.29.74,1.92-1.19-.53-2.77-1.35-3.44-2.52l-.8-.2-.37.16-.63-.16c-.53.09-1.97,1.27-2.4,1.6l-.5.2-7.2.8c-.73.34-1.34,2.01-2,2.4l-.3-.2h-.3c-.3,2.45,1.04,4.1,3.5,4.3l.21-.13.79.13c.5-.23,1.34-.99,1.7-1.4.34-.3,3.31.72,3.7.8.66-.02,2.77-.08,3.47-.15.9.18,1.7,1.46,2.79.98,1.78.52,5.67-2.43,7.19-3.13.95.08,2.88,1.37,3.65,1.9,1.31.41,3.75-.02,5.1-.22-.94.72-2.67.91-3.82.96-.64-.03-3.27-1.45-3.87-1.74l-.85.08-.15-.08c-.88-.46-5.39,3.12-6.1,3.5v.8c.07.08.53.66.62.7-1.02-.71-2.63-1.01-3.82-1-.97.12-3.01-.02-3.5,1.1-.02.51-.03,1.57.3,2l7,5.8,2.8.6.13-.19.87.19.91-1.28c-.02.27-.68,1.52-.81,1.78.76,1.16,2.28,1.56,3.5,2,.17.33.6,1.38,1,1.5.14-.09.42-.29.55-.4,0,.1.39.35.45.4,2.07-1.29,5.15-4.54,6.6-6.5.6-.85,2.1-3.26,2.9-3.9,1.07.1,1.41-1.25,1.7-2,.26-.37,1.08-.55,1.5-.6,1.2-.74,2.18-2.53,2.9-3.7l1-.4.5-.8c.79-.19,1.9-.17,2.3-1.03v.23l3.7,1.7.68-.15.32.15,6.28-1.39c.03.31-3.94,1.1-4.18,1.19-.32.2-1.92,1.37-2.3,1.35-1.03-.45-2.5-.51-3.6-.45l-1.4,1.2s-.74-.09-.8-.1l-.16.14-.84-.14c-.27.24-1.11,1.02-1.4,1.2v.6l.9.7-.3.5h0c-.07.39-1.91,2.01-2.2,2.3-.47.58-1.37,2.59-1.8,3.2-.02.29-.11.97-.3,1.2-.41.35-.81.83-.8,1.4l.6.1c.25.29.87,1.08,1.3,1.1l.6-.1.05-.04.35.14.6-.1c.57-.65,1.66-1.19,2.32-1.71.38-.08.94.03,1.32-.03,0,.13-1.23.59-1.34.64l-2.3,1.8c-1.25.82-2.35-.39-3.2-1.2l-.13.8-.87-.8c.07.86-1.58,4.47-1.9,5.3l.7.5.54-1.09-.24.59.7.5c.17-.34.96-1.96,1.17-2.23l.63,2.53.8.6.45-.41.55.41,1.09-1.01,4.21,1.01c.81-.07,2.05-.08,3-.3l.14-.14c-.49.73-1.69,1.66-2.6,1.71l-3.34-.97c-.59-.02-4.99.31-5.7.4l-1.5.8-1.2,1.7.2.7c-.17.2-.55.53-.81.6l.61-1.3-.4.5c-.13.02-.76.12-.88.1l.28-.6-.4.5c-.62.13-1.56.1-2.2.1-.53.59-1.11,1.5-1.2,2.3.96-.03,2.22.18,3.07-.39l-.87,2.69,1,.2c.24-.16.75-.07,1,0,.1,0,2.1-.76,2.2-.7v.5c-.18.06-2.61,1.15-2.73,1.03l-.77-.43-.33.37-.67-.37c-.66.57-1.31,1.66-1.39,2.54l-.11.06-.46-.08.06-.22-.33.17-.37-.07-.18.15-.82-.15-.6.5-.6,1.6.3,1.4.9.6.49-.34.51.34.42-.29c-.14.44-.34,1.3-.3,1.76l-.02.03h-.2l-.5-.5-.43.5h-.07l-.5-.5c-.95.71-.81,2.67-1.6,3.5.21.49.86,2.57,1.4,2.8l.19-1.29c.1.4.46,1.05.81,1.29.09-1.55.71-3.65,1.29-5.06l.31.06.4-.5.1.4.5.1c.32-.44.84-1,1.3-1.3l1.37-.41.22.11.3.6-.1.6c-.28.25-1.04.44-1.4.5l-1.1.6-.5.9.4,1.1c-1.34,1.74-2.33,4.22-2.6,6.4.06-.06,1.2-.94,1.18-1.03l-.18,1.03c1.25-.77,2.08-2.58,3.1-3.6l.3-.11c-.09,1.48-1.79,3.17-2.2,4.51.03.45.29,1.56.4,2,.16.37.74.52.81.97-.3-.24-.75-.37-1.11-.17l-.02.09c-.27-.2-.67-.25-.98-.09.18.84-3.39,5.49-3.8,6.2l-1.8,3.5c0,.79-.29,2.58-.5,3.3l.2.5.4.1c.15-.1.33-.43.41-.59l.19.49.4.1.06-.06-1.06,1.66c.1.73.1,1.87.7,2.4h.4l.32-.36.28.36h.4c.3-.38.97-1.12,1.48-1.21-.09,1.28-1.9,3.67-2.58,4.71.69,2.83-.49,4.6,3.2,5.7l-.3,1.1c.3.04.82-.04,1.06-.23l-.06.23c2.07,0,4.32-3.69,5.74-4.95-.48,1.47-2.17,3.38-3.34,4.35-.5.21-1.6.73-2,1.1-.48.61-1.21,1.98-1.5,2.7-.05.53-.33,1.54-.6,2l-2.5,2.2c1.33,2.46-.97,5.86-1.8,8.2-.06.36-.13,1.15,0,1.5.16.28.42.89.5,1.2-2.07,6.37,2.5,6.51-3.9,12-.4,2.35-.19,5.85.9,8,.92.48,2.2.25,3.2.3.52.04,1.35-.78,1.77-1,.45.29,1.15.67,1.68.38,2.86.46,5.6-3.28,6.44-5.68l-.6-.5c.15-.28-.7-1.93-.8-2.2-.22-.53-.74-1.11-1.3-1.3l-.6.1v-.5c1.85-.64,2.18-3.43,3.1-4.8.06.03.23.13.3.1.15-.67.09-2.01.1-2.7.15-.56,1.03-2.26,1.3-2.8l-.3-1.5c.24-.36.89-.71,1.3-.8l.3-1.1-.4-.9-.6-.1-.4-.5c0-.23.17-2.04,0-2.2-.14-.15-.27-.5-.3-.7l1-.8c.41-4.33,1.03-4.84,3.8-8,.73-.73,2.35-.76,3-1.6,1.16-3.01-2.09-6.09-3.9-8.1.28-.09.41-.5.7-.6-.13-.1-.55-.46-.7-.5v-.6h.3v-.5c-.63-.41-.77-1.31-.7-2-.1-.58-.53-2.03-.7-2.6-.2-.05-.8-.31-1-.4l-.1-.2.3-4.49c.42.2,1.47.36,1.92.22.47.14,1.35-.05,1.78-.23l.4-1,.2.1c.23-.7.53-1.85.5-2.6l.3-.3h.9l.4-.3,3.9-6,5.6-3.8c.39-.31,1.31-3.11,1.5-3.6.64-1.89,2.25-2.13,4-2.2.52-.17,1.36-1.07,1.72-1.47l-.32.77-1.7,1.3c-.89.28-2.48,1.12-3.2,1.7-.6.66-2.02,4.14-2.4,5-1.11,1.29-3.49,2.61-5.1,3.1-.7,1.12-5.31,9.82-6.3,10.4.19.93.9,2.86.6,3.8-.78,1.06-.59,2.66-.6,3.9.07.28.29.8.5,1,.22.07.56.32.7.5.09.62.22,2.4.8,2.8l1.5.6c.58.32,2.28,1.49,3,1.2l-.02-.07c.04.11.93.06,1.02.07-.31-1.58-1.19-3.8-2-5.2l1-1.43c-.14,1.51.67,3.25,1.2,4.63l1.6,1.1c.05,1.41.71,3.49,1.2,4.8l3,2.9c.21.51.74,1.72,1,2.2h.6l.22-.36.18.36h.6l.3-.5c0-.38-.22-1.07-.4-1.4l-.5-.3c.14-.33.53-1.37.8-1.6-.05-2.08-.72-4.62-1.8-6.4-.16-.2-.55-.53-.8-.6-.39-.21-.52-1.93-.6-2.3-.31-.25-.88-.33-1.2-.6-.61-.78-2-2.21-2.8-2.8l-.63.32-.37-.32-1.52.76c.68-.74.53-2.01.88-2.9l.34.94c.58.43,3.25,2.84,4,2.8l.14-.29.86.29.39-.77c.21.78.77,2.54,1.41,3.07.43.11,1.67.53,2.1.3h0c.24.12.75.07,1,0,.31-.38.86-1.18,1.1-1.6.23-.75.32-1.84.5-2.6.33-.72,1.13-1.45,1.4-2.2.47-1.61-.06-3.01-1.7-3.6v-.2c.31.17.97.47,1.3.6l.39-.26.61.26.6-.4c-.31-1.05-.32-2.61-.3-3.7-.05-.43-.28-1.9-.1-2.3l.6-.3c.21-.84-.12-3.05-.26-3.9l.92-.09.04.1.83-.08c-.16.49-1.62,4.15-1.53,4.58.13,1.64-.16,4.44.7,5.9,1.21.55,2.83.64,4.1.3l.3-.7-.45-1.35c0,.16,1.94.79,2.05.85,1.54,2.16,3.37,4.64,6.3,4.8l-.08-.23h0l.08.23,5.1,1.1-.4.2.38.38h0l-.38-.38-.6.37-4.8-.77h0c-.79-.07-2.62-.29-3.2-.9-.3.16-.72.28-1,0-.61.32-3.23-1.55-3.9-1.4-4.93,0-5.77,3.47-5.2,7.7h0c.05.77.26,3.92.5,4.6.2.39.49,1.27.6,1.7.52,3.43-.16,4.49-2.6,6.8.94,1.8,3.42,3.45,5.1,4.5.08.37-.14,1.07-.3,1.4l.4.3c3.17,0,6.87,2.43,6.7,5.9h0l-1,1.5,1.7.6,1.2,1.5.4,1.9-.4,2.3-1.2,1.6c-1.6.78-4.58,1.92-5,3.9-.12.59-.43,2.19-.7,2.7-.8,1-2.54,2.35-3,3.6-.27,1.22.27,2.92-.2,4.1l-1.1,2.8c-.03.42.08,1.2-.1,1.6l-.5.1-.2.2-3.1,4.1c-.69.44-2.31,1.55-2.8,2.2-.49,1.23-.36,3.07-.8,4.3-1.4,2.47-1.69,5.26-.3,7.8l.78-.44h0l-.78.45c-.12,1.44,2.06,4.01,2,5.4-.24.48-.57.94-1,1.3-.72-.53-1.51-1.47-1.6-2.4.14-1.4.13-3.21-.5-4.5-.66-.82-1.01-2.2-1.8-2.9l-.2.9-.08.08c-.13-.29-.47-.79-.72-.98l-.2.9-.3.3c-.11.05-.39.01-.5,0l-.08.09-.92-.09c-1.96,2.29-.89,8.49,0,11.2.67,1.82,4.54,6.37,5.8,7.9.4.12,1.23.47,1.4.9.28.83.44,2.07.7,2.9.31.48,1.09.57,1.6.6-.37.71-.16,1.59.3,2.2l-.5.7c-.04.66.04,1.96.2,2.6l.5.6c1.21.19,2.76,1.54,4,1.6l-.12-.27c.03.07,1.04.25,1.12.27-.12-.29-.69-1.4-.7-1.7.1-.8.34-2.09.3-2.9-1.68-.93-2.19-3.29-2.6-5-.13-.36-.47-1.09-.8-1.3-.51-.84-.73-2.03-.7-3,.16-2.08,4.1-6.37,6.3-4.6l.8,2.3c.57.51,2.36,1.02,3.1,1.2l5.6,3.5c1.51.97,3.32,4.84,4.6,6,.65.04,1.62-.13,2.2.2.77.81,2.08,1.43,3.2,1.5l.31-.12.69.12.5-.2c.23-.28.46-.74.8-.9l.3-.7c-.11-.79-.31-2.4-.4-3.2l.6-1.2-.7-1.2c.12-.5.47-1.45.7-1.9-.09-1.55-1.22-2.61-2.8-2.4-.52-.93-.77-2.68-1.1-3.7.17-.88.49-2.03.95-2.8.47.91.56,2.34,1.35,3.1.62.72,3.76,2.22,4.7,2.3l.25-.12s.73.12.75.12c.55-.13,1.21-.85,1.48-1.32l-.28,2.22,1.7,2.8,2.4,1.6.75-.17.25.17,1.8-.4-.5-1.2c.06-.71.33-2.06.76-2.65l.34.15c.21.86-.22,1.93,0,2.8-.08.11-.25.37-.3.5l.1.2c.08.03.25.12.3.2h.2v.6c1.36.3,3.33.15,4.7-.1l3.7-2.9c.39-.18,2.61-1.16,2.9-1.4l-1.6-1.7c.17-.15.66-.59.9-.6l-.1-.3.3.1.4-.3-.1-.2h-.1l-.1-.4c.19.33.48.85.9.9l.4-.3-.1-.2h-.1l-.06-.24,2.26.34.08-.14.92.14,1-1.7c.6-.28,3.92.15,4.6.2l.16-.08.84.08.8-.4c.63-1.23.66-3.05.5-4.4-.04-.62-.23-1.98-.6-2.5l.4-1.55c.26.33.87.72,1.3.75l.43-.16.57.16.8-.3c-.02-.07-.12-.43-.1-.5l-.2-.1.3-.13c.21,1.09,15.55,1.62,16.5,1.83.76.13,3.83-.76,4.59-.99l.71.39v.24l-.41.18-.49-.22c-.39.12-1.09.53-1.4.8l-.9.1v.6h3.2c-.51.65-3.8,1.59-4.6,1.7l-1.8-.6c-.41-.43-.91-.94-1.5-1.1l-.57.17-.43-.17-3,.9c-.54.24-1.53,1.45-1.9,1.9.47.25,2.52,1.28,2.9,1.6l-1.81,1.05c-.57-.12-.95-.91-1.39-1.25l-.82.18-.18-.18-.9.2c-1.79,1.79-2.73,6.09-3.6,8.4l.5,1.4c-.26,1.42-1.13,3.12-2.3,4-.71.23-1.55.57-1.7,1.4-.36,1.32-1.64,4.42-2.2,5.7-.61,2.88-1.35,8.22-3.3,10.5.28.34.73,1.29.9,1.7.15.23.76.57,1,.7.66.85,4.6,6.8,5.5,7.2l1.6,3.4,1.2.5c.2.53.29,1.64.5,2.2-.04.61-.36,1.39-.4,2,.13,1.43,1.42,3.04,2.3,4.1.48.85,1.85,3.48,2.7,4l.71-.29.29.29c.47-.16,1.29-.63,1.8-.5.11-.13.86,0,1,0l.7-.3-.4-1.6c.04-.13.39-2.15.5-2.2.08,1.53.14,4.11-.3,5.6l-1.6.5v.5l.7.6c.26,1.15-.29,2.65-.3,3.8.39.87,1.52,1.18,2.4,1.1.3.18,1.86,2.48,2.1,2.8,0-.36,0-1.14-.05-1.49l1.05,1.49c.04-.86-.18-2.04,0-2.9,1.37-.46,1.97-1.99,2.5-3.2.67-.78,1.8-2.21,1.8-3.3.18-.99.55-2.31.2-3.3l.05-.03.05.03c.22.41.62,1.27.8,1.7l-.4.9c.05,1.01.62,2.34,1.5,2.9l.95-.05.05.05,2.1-.1.9-.6c.16-.49.51-1.53.7-2,.99-.89,2.81-1.55,3.72-2.56-.39.84-1.42,1.74-2.32,1.96-.07.56.54,1.73.8,2.2h0c.39.83,1.34,2.7,1.9,3.4-.26.61-.99,2.4-1.4,2.9-1.86.5-2.37,1.45-3.1,3.1-.33.38-.94.76-1.2,1.2-.02.43.65,1.99.8,2.4l.3.2.82-.12.18.12c.37-.05,1.57-.19,1.89-.38l-.09.58-1.6,1.6.5.9c-.44.31-1.08.68-1.24,1.24l-.16-.14c-.05.02-.81.08-.85.12l-.15-.12c-.49-.16-4.57,1.62-5.1,1.8l.34.4h0l-.34-.4-1,.6-.8,1.4c.94,1.49.16,6.56,0,8.2l.4,2.7,1.3,1.8.47-.74h0l-.47.74,1.7.8,4,.1c-.28.64-1.73,1.62-2.3,2,.04.25.2.82.22,1.09h0c-.02-.27-.18-.83-.22-1.09l-.2.1-.4.9c-2.43,2.11-5.04,7.02-6.5,9.9-.64,1.67,1.84,5.72,2.4,7.2h0l1.86,4-.26-.3-1.1-.1-.1.08-.9-.08c-.52.44-1.88,1.67-2.6,1.7-1.13.13-2.98.29-3.4,1.6-.19,1.61,1.5,3.43,2.4,4.6.39.83,1.4,2.96,1.9,3.7l.6-.69h0l-.6.69c.48.57.57,1.5.5,2.2.14.06.85.45,1,.44h0c-.14.01-.87-.38-1-.44v.67c-.16-.87-6.11-4.33-6.8-4.87-.31-.29-.74-1-.9-1.4-.55-.58-2.08-1.38-2.8-1.7l-.88.06-.12-.06c-.1,0-1.41.11-1.5.1h-.5l-6.6,3.3h0c-.96.53-3.01,1.41-4.1,1.5l-4.45.16c-.49-.21-1.17-1.13-1.45-1.56-.42-.47-1.37-1.17-2-1.3l-.42.23-.58-.23-.22.12c-.62-.81-1.9-1.18-2.88-1.22l.06.15c-.09-.06-.94-.14-1.06-.15.1.74,1.19,1.91,1.7,2.4l.5,1.4h-1.6c-1.05.49-5.66,2.22-6.3,3.2h0c-.7.55-2.01.64-2.73,1.25-.37-.27-1.08-.02-1.47-.15-1.32-.02-3.04.37-4.05,1.27.52-.58,1.65-1.34,2.35-1.67.65-.01,1.77-.42,2.3-.8.46-.9,1.7-3.57,2.6-4.1l-.6-.5c-.55-.14-1.44-.1-2-.1-.31-.13-.76-.54-1.1-.6-.08.06-.35.21-.36.33-.14-.11-.46-.29-.64-.33-.47.16-.53,1.04-1,1.2-.52-.14-1.3.47-1.8.3-.32-.51-.32-1.43-.5-2l-.8-.9v-.2l-.2-.2c-.04-.42.19-1,0-1.4-.47,0-1.11-.58-1.5-.8l.1-.2c-.32-.65-.3-1.71-.5-2.4-.72-.58-2.23-1.55-3.2-1.5-.75-.13-3.5-.58-4.2-.5-1.06,0-6.66,1.95-7.4,2.7.68,1.28.44,3.52.3,4.9,0,.68,0,2.17-.09,2.84-.35-.76-1.23-1.55-1.81-2.14l-.9.1-.1-.1-.48.05-.42-.25-.35.3h-.15l-.5-.3-1.3,1.1v.6c.16.22.8,1.45,1.1,1.5l.9-.06.1.06c.14,0,.68-.07.8,0,.75,1.07,1.49,2.88,2.8,3.4l.4-.2.05-.13c.08.11.43.28.55.33l.4-.2.12-.33c.34.74,1.19,2.26,1.88,2.73.34.75.16,1.7.2,2.5.07.02.43-.08.5-.1.11-.02,1.59,1.32,1.7,1.4l.1.3c.13-.07.68-.29.72-.46l.18.16.1.3c.66-.07,1.37-1.53,1.82-1.87l.08.07c-.21.62-.71,1.37-1.2,1.8-.22.61-.29,1.48-.1,2.1l.3.1c.2-.02.48-.25.6-.4v-.2h0c-.02.07.08.43.1.5l.3.1c.1-.03.35-.1.4-.2.22.16.74.28,1,.3l.33-.13s.63.13.67.13c.29-.01,2.95-1.68,3.26-1.86-.42.51-2.14,2.25-2.1,2.97l-.16-.11-.4.3-.08.7c-.1-.17-.19-.61-.22-.8l-.3-.2-.4.3c-.3,1.89.12,4.85-.8,6.6l-3,2-1,1.6c-.63.47-3.93,3.18-4.6,3.4-.73.35-1.85.27-2.5.8-.88,1.05-7.08,8.08-7.5,9.2.08.18.25.6.2.8l-.5.8.7.4.57-.24.43.24.7-.3c.22-.33.73-.99,1.13-1.1,1.16.15,2.76.35,3.87-.1.29-.26.64-.7.95-.92.05,0,.9.7.95.72.61.14,1.37.67,1.7,1.2l.5.1s.4-.19.41-.21l.09.11.5.1c.47-.16.94-.77,1.3-1.1l-.6-.8c-.02-.52.22-1.45.5-1.9l.7-.5c-.04-.13-.13-.39-.2-.5,2.44-3.04,2.76-3.41,6.7-3.2.44-.25,1.31-.79,1.7-1.1l3.07-.9c1.26.25,3.07.38,4.33.2l.4-.3.1.3.5.1.42-.34.08.24.5.1c.06-.05.54-.43.58-.48l.12.08c-.17.13-3.12,2.18-3.1,2.3-.49,1.52.66,3.08.6,4.6-.24.36-.89.71-1.3.8l-.2.6c.48,1.92,3.46,5.48,4.7,7,.03-.02.81-.18.83-.22l.17.22.8-.2c.11-.07.84-.69.97-.63-.49.73-2.1,2.11-2.97,2.33-.1.05-.17.31-.2.4-.05.16-.3,1.19-.4,1.3l-.9.6c-.98,1.42-1.93,3.54-1.9,5.3.59,1.28,2.28,3.81,3.4,4.7l.85-.13.15.13c1.05.05,3-1,4-1.1v.5h0v.1c-.24.15-2.56,2.02-2.81,1.95-.21-.08-1.06-.55-1.29-.45l-.11.27c-.19-.09-.67-.33-.89-.27-.51.93-.51,2.27,0,3.2-1.31,2.08-1.61,5.31-1.9,7.7-.62,2.65-3.15,6.1-4.7,8.3l-5.6,4.9c-.75.25-1.85.25-2.6.5-.53.18-1.65,1.69-2,2.1-.74.95-2.12,1.7-3.3,1.9-.29.4-.46,1.04-.8,1.4-1.04.37-5.26-.1-6.3,0l-1.8.9.07,1.47-.57-.47h-.6l-.17.19-.23-.19h-.6c-1.3,1.21-1.98,3.49-3.6,4.4l-1.6.2-.3.3c-.26.73.32,1.57.2,2.3l-.28.21c-.65-.19-2.1-1.01-2.82-.91l.05.17c-.07-.08-.94-.15-1.05-.17l.3,1-1.25.57c-.42-.21-2.59-1.58-3.05-1.47-1.11-.06-2.55-.31-3.5.4l-.1.6.6.4v.5h-.7l-.2,2-1.4,1.3-1.9.7c-.47.06-1.73.18-2.1.5-1.28,1.61-1.96,1.89-4,2l-.4.4c.14.32.5,1.14.4,1.5l-.5.2-.1.3c.18.28.22.77.2,1.1-.17.09-.47.35-.6.5.08,0,.97.01,1.02-.02l-.02.02c.76.04,3.06-.27,3.73-.67.1.21,1.95.42,2.17.47l.8.7.3-.5c1.23.74,1.34,2.51,1.3,3.8.1.57.43,2.16.1,2.7-.62.93-2.06,1.28-3.1,1.4-.58.47-1.08,1.39-1.7,1.8-.4.07-1.29.16-1.7.2.76-.13,2.65,1.6,3.2,2,.03.3-.05,1-.1,1.3h.7l.35-.42-.05.42h.7l.5-.6-.4-1.2.58-.29c.71.08,6.16.94,6.72.79.69.19,3.98-.74,4.7-.9l.7-.7.07-.63,1.23,1.23v.18c-.08,0-.21.1-.27.14l-.33-.22c-.4-.06-1.3.69-1.6.9l-2.3.5c-.2.11-1.6,1.01-1.82.99-.45-.2-1.48-.63-1.98-.39v.02c-.19-.17-.77-.06-1-.02.11.16.24.68.33.85l-2.53-.35-.08.13-.92-.13-.3.5.9,1.1,2.3.6.7,1.4-.5.8c1,1.13,3.69,1.53,4.9,2.3l.5-.2.03-.06c.11.07.35.21.47.26l.5-.2.3-.7c.74-.22,1.52-.81,1.7-1.6.63-1.76,3.74-1.02,5.1-1.1l.02-.02.98.02.6-.68c.04.08.51.24.6.28l.17-.47c.16.19.59.4.83.47.29-.69.9-2.51,1-3.2h.5v-1.9c.19-.12,1.7-1.22,1.9-1.2,0-.06.02-.24.03-.3h0c0,.07-.04.24-.03.3.47-.13,1.88-.6,2.35-.55l3.15.45c.65-.03,2.13-.03,2.8-.1l1.6-.9c-.36-.29-.9-.94-1-1.4l.1-.5h.03c.2.43.72.77,1.17.9.07-.05.34-.21.37-.3.07.1.52.25.63.3.37-.15.6-.76.9-1,0,.49-.37,1.09-.6,1.5l.4.9c.64.54,1.68.8,2.5.7l-.5.6c-.22.09-1.45-.08-1.7-.1l.05.11-1.05-.11c.59,1.75,2.17,3.62,4,4.1.82-.05,3.99-.32,4.81-.72l2.09,1.12,1.8.2c.51-.15,1.22.13,1.7-.2v.4l-1,1.7c-1.42.52-3.86.47-5.26.94-.07-.1-.33-.27-.44-.34v-.5h.3l-.3-.5c-.21.23-.58.9-.73,1.18l-.27-.18v-.5h.3l-.3-.5c-.34.38-.7,1.19-1,1.6l-1.6.5v1.1c.26.42.63,1.3.6,1.8l-.9.7c.03.31.2.72.3,1,1.05-.09,3.17,1.23,4.2,1.3l.06-.24c.2.12.71.21.94.24l.1-.4.5.1.36-.21c.08.13.51.19.64.21.73-.32,1.1-1.35,1.86-1.65l.84.15c.16.14.57.48.8.5l.2-.1.17-.27c.14.13.44.34.63.37l.2-.1.4-.64.2.14c.04.18.21.54.3.7.17-.02.41-.37.5-.5v-.1h.23c.03.13.2.47.27.6.17-.02.41-.37.5-.5v-.1h1.9c-.23-.72-.92-1.5-1.2-2.2l.1-.7c.85-1.31,3.87-1.36,5.2-1.6h0c.22-.02.89-.08,1.1,0,.69.51,1.07,1.86,1.6,2.5,1.59.7,2.15,2.67,2.6,4.2l1.12.23h0l-1.12-.23c.22.24.43,1.58.5,1.9-.07-.03-.24.07-.3.1v.4c.46.94,1.49,1.9,2.5,2.2l.48-.24.52.24.54-.27c1.14.87,3.38,2.9,4.06,4.17h.1-.1c.33.55,1.06,1.41,1.7,1.6l11.7,1.1c.12-.13.85,0,1,0l3.04-1.29.86.29.21-.26.79.26c.65-.56,1.08-1.78,1.2-2.6-.12-.27-.57-1.76-.87-1.87h0l.27.27c.32-.3.95-.23,1.3-.5.17-.23.34-.92.4-1.2.64-.85,1.71-2.15,2.8-2.4-.08-.16.29-.7.35-.84-.07.14-.43.67-.35.84h.1l2.7-1.8c.16-.37,1.07-1.46,1.33-1.78.02.14.4.66.47.78.44.28,1.16.09,1.6.2,1.87-.14,5.37-.15,6.8-1.6h0l1.8-1.2,2.2-.5c.6-.44,1.72-1.72,2.2-2.3h0c.8-.85,3.32-4.1,4-4.9l2.7-1.9c.65-.74,1.28-1.94,1.9-2.7.42-.25,1.31-.52,1.8-.5.68-.07,1.54-.56,1.98-1.08l.02.08c-.28,1.41-2.02,1.95-3.2,2.3-.72.17-1.99,2.15-2.4,2.7l-1.7,1.8h.2-.2c-1.27.97-1.77,2.62-2.1,4.1-.34.33-.96.47-1.3.8l-3.3,5.7.1.3-.1-.3c-.53,1.05-1.46,2.51-2.7,2.8-.54,0-1.61.16-2.1.4-2.3,1.21-4.31,5.38-6.33,6.93l-.67-.13-.17.17-.83-.17-1.1,1.1.8.7c-.19.78-1.11,1.37-1.4,2.1.03.46,0,1.48-.2,1.9h.1l.03.08h0l-.03-.08s-.12,0-.15.02l-.35-.12.14.21-.24.09-.9-.3c1.1,1.11.59,3.69.7,5.1.02.28.12.87.3,1.1.14.47.09,1.36-.12,1.8l-.18-.3-.71.49-.29-.49c-1.64,1.63-4.25.99-6.3,1-1.12-.05-3.93.92-5,1.3l-4.48.17c-.64-.11-1.78-1.24-2.22-1.67l-5.8-1.4c-.72,0-3.14.05-3.89.08l-3.31-.88h0c-1.19-.35-3.3-.91-4.5-.6-.57.34-1.83,1-2.5,1-1.92-.08-4.33-.04-6.1.8l-8.5.8-3.6,1.5v.4c.91.52,1.24,1.7.7,2.6l-.2.1-.8-.1.08.13-1.08-.13c.22.44.91,1.48,1.2,1.9.21,1.03.64,2.74,1.1,3.7-.49.2-.87.7-1,1.2l-.3.4-3.1,3.6c-.82.93-2.34.65-3.4.5-.37-.07-1.2-.69-1.5-.9-1.42-.47-4.1-.08-5.6-.2l-.3.5c.12.75.05,1.91.4,2.6-.17.54-.6,2.12-1,2.5-.12.7-.39,2.38-.5,3.1-.07,4.12,1.43,8.07-3,10.6l-.9,1-.3,1.3c-.19.9-3.26,3.2-3.9,3.8l-.6-.2-.5.4c-.27.51-.1,1.4.1,1.9-.67,1.03-1.28,2.6-2,3.6-1.27.6-3.63.79-5,.5v.17l-1-.17c-.05.27.13.94.2,1.2-.09.24-.25.76-.26,1.02l-.24-.32-.3.1-.37.43c.02-.11-.27-.45-.33-.53l-.3.1c-.21.26-.71.85-1,1h-.9l-1,.7c-.56,1.04-.65,2.64-.6,3.8l-.4,2.9c-.13.25-.59,1.12-.6,1.4l-3.2,1.7c-.5-.03-1.2.07-1.6.4.24,1.11.58,2.59.2,3.7-3.1.83-6.56,6.84-9.5,8h-1.7c-.53.97-.79,2.53-1.87,3.11-.36-.04-1.57-1.38-1.83-1.61h-2.1c-1.67,1.27-4.64,2.32-6.4,3.5-.34.13-1.47.51-1.7.8l-.9,1.5c-.44.73-.08,1.94.1,2.7h.1c.16.26.22.7.2,1-.08.18-.32.42-.5.5h-.5l.5,2.3c2.51,1.13,7.79.69,9-2.2-.17-.56-.38-1.72-.3-2.3.46-.58,1.56-1.12,2.28-1.21.39.16,1.82.99,2.22,1.21,1.69.23,4.3,1.27,5.6,2.4.96,1.05,2.29,2.97,2.5,4.4-.2.7.09,1.72.5,2.3.5.47,1.53,2.07,2.3,2.1.04-.06.23-.32.23-.4.16.17.53.39.77.4.21-.13.62-1.86.7-2.1.2-.23,1.5-1.74,1.7-1.9.27.07.73.11,1,0h0c.26.09.74.1.99,0,.54-.77,1.63-2.51,1.9-3.4-.06-.19-.2-.7-.4-.8-.03-.28-.1-1.04-.2-1.3-.19-.03-.62.06-.8.1-.52-.29-1.17-.72-1.8-.6,1.52-.56,2.3-.74,2.1-2.6.49-.35,1.02-1.03,1.7-.9-.18-.2-.75-.91-1-1v-.5l.6-.8v-1.4l.19-.06.31.26c.09.78.2,2.97.9,3.5l.46-.8.54.8c.36-.59,1.99-3.61,2.5-4,.63-.22,2.33-.8,2.9-1.1l.8-1.1.62-.28,1.58.28.15-.15.85.15.5-.5c.05-.48.65-1.61.6-2.1-.1-.21-.26-.67-.3-.9.21-.67.83-1.3,1.3-1.8.08-.34-.19-1.18-.3-1.5l.5-.6c.56-.29,1.56-.33,2.15-.48l.55,1.58h.2c.16-.09.44-.28.4-.5h.22l.18.5h.2c.16-.09.44-.28.4-.5,1.48-.16,8.35-.24,9.5-1.2.98-.6,3.7-2.53,4.93-2.31.65.21,4.03.96,4.47,1.51.17.5.62,1.45.9,1.9l1,.1v-.1l1,.1c.08-.48-.28-1.02-.2-1.5l.4-.4.5-.1v-.5h-1.3l.3-.6c-.29-.06-1.02-.1-1.3-.03v-.47l1.6-.4-1-.8-.84.12-.16-.12-1.8.27-.64-.87c.85.05,2.03.24,2.83-.09.47-.54.74-1.43.4-2.1l-.7-.5v-.4h.6c.41-.15.75-.61.9-1l-.07-.13h0l.07.13.02-.12.08.02.37-.2c.06.08.23.14.33.14-.19.61-.89,1.43-1,2.06h0l-.3.6c.32.94.73,2.19,1.3,3,.25.19.8.52,1.1.6.48-.12,1.17.03,1.65-.08l-.55,1.28.1.3.7-.9.54-.2h0l-.54.2-.7.9.3.8c.46.41,1.47,1.03,2.1,1.1-.06.21-.23.8-.3,1,.48.35,1.17.98,1.8,1l.36-.18c.08.09.52.16.64.18.32-.06.81-.66,1-.9.48-.12,1.36-.69,1.79-.94,2.57,1.94,5.19,5.84,7.61,7.94l.45-.52.55.52.55-.63c1.89,1.12,4.27.49,6.15-.37-.42-1.55-.26-3.64.4-5.1.09-.5.36-1.6.7-2,.59-.09,1.63-.54,2.1-.9l.18-.97.62.27.39-.26.61.26.6-.4.3-1.9.1-.1c-.2-.04-.6-.17-.78-.26h0c.19.09.58.22.78.26h0l.1-.2c.19-.11.58-.27.8-.3.15-.5.58-1.56.5-2.1l-1,.05v-.05c-.51.08-1.48.07-1.9-.3l-.3-1.2.3-1c.69-.71,1.95-.96,2.9-1-.07-.33-.94-3.34-.8-3.6h0c.07-2.66,1.32-5.78,3.4-7.5-.13-.31-.47-1.15-.53-1.47.77,1.13,2.37.86,3.53.97l3.4-1.5c.67-.72.98-2.04,1.7-2.7,1.14-.17,2.84-.97,3.92-1.29.3.15,1.05.48,1.38.49l.34-.17c.1.07.54.15.66.17.3-.08.97-.69,1.2-.9.37,0,1.11-.96,1.43-1.04.97.4,2.25.36,3.27.24l1.7-1.1c.52-.14,2.68-.68,3.24-.83l.36.03,8,3,9.9,7.6,1,1.8.1,2.8h.3c.05-.08.66-1.08.66-1.14l.04,1.14h.3c.52-.84,1.32-2.07,1-3.1l-1.2-.4-.4-.7c.48-2.37.44-4.05,3.25-4.51.77,1.27,8.86,1.58,10.15,1.81.56.25,3.84,1.91,4.4,1.9,1.23-.13,4.52.26,5.6-.5l-.1-1.1,1.7-2c-.23-.01-.82-.47-1-.6l.3-1.2-.3-.6c-.68-.12-1.63-.08-2.3-.3-.51-.32-1.32-1.88-1.6-2.4-.14.11-.56.45-.69.55l-.31-.55c-.26.2-.75.61-1.01.8l1.33-2.12c.03.07.22.44.18.51l.2.3c.37.19,1.02-.04,1.4.1.31-.14,1.69.33,2,.4.14.49.19,1.23.4,1.7.22-.16.64-.52.78-.76,0,.11.19.65.22.76.67-.47,1.25-1.51,2-1.9.49-.17,1.35-.71,1.9-.8.2-.11,1.57.26,1.8.3h0c.33.05,1.32.28,1.63.1.36.15,1.12,0,1.47-.1.6-.35,2.11-1.21,2.8-1.3l3.2.6c.44.39,1.42.92,2,1l.09-.27.91.27c-.09-.03,1.58-2.87,1.63-2.98.14.02.63.09.77.08l.11-.09c.15.02.75.11.89.09.82-.86,2.79-1.1,3.9-1.3v-.4c-.15-.17-.51-.47-.7-.6,1.14-.4,3.68-.33,4.8-.8.18-.55-.02-1.41-.3-1.9-.4-.46-3.9-4.55-4.19-4.89.87.45,2.97,1.55,3.39,2.49h0c.61,1.1,1.85,1.6,3,1.9.53.62,1.85,1.48,2.6,1.8.33,1.23,1.72,1.88,2.9,2l.17-.17c.14.07.66.15.83.17l.6-.6.1-.39.9.99.87-.14.13.14,1.2-.2c.82-1.23.96-3.24,1.7-4.5.92-.34,2.34-.14,3.2.3h0l.5.3-.39.97v-.07l-.51-.4h-.6l-.13.22-.27-.22h-.6l-1.2,2.1-1,.4v.5l3.8.6v-.16l1,.16v-.6c-.38-.19-.68-.74-1-1v-.4c.16-.15.5-.5.6-.7l-.08-.39.28.09c.17-.11.69-.44.8-.6l.08.04-.18.46.3.1.42-.28,1.28,1.28v.4c-.79.34-2.03.83-2.2,1.8.6,1.01,4.63,3.27,5.7,3.6l.35-.24.65.24.9-.6c.46-.73-.32-1.91.06-2.64l.34.34.4.1.52-.18.08.08.4.1,7.6-2.6h8.1l5.5-1.92,1.2.42.39-.21.61.21,1.01-.55.79.05,8.9,3.3h0c.95.53,2.74.19,3.7.7.24.24.91.93,1.2,1.1h2.2l2.1.9c1.15.16,2.54.09,3.7.1l1.7-2.5,1.6-1.1c.16-.55.8-1.22,1.1-1.7,2.62-1.33,11.38-2.4,14-3.8.84-.72,4.77-5.13,6.01-5.02l2.59.92h0l3.6,1.2.43-.19.57.19,1.6-.7c-1.07-5.2-.76-5.02,2.2-9.2,2.68-2.58,3.1-2.76,6.8-2.6.34-.13,1.1-.47,1.3-.8.3-.36.73-.99,1.2-1.12.55-.04,1.25.05,1.8-.08.65-.94,3.37-1.77,4.4-2.1,2.39-2.4,2.95-6.51,2.2-9.7-.64-1.37-1.25-3.39-1.3-4.9l.3-.2h1.6c1.13-.62,1.17-2.9,1.4-4l-1.1-.7-.87.08-.13-.08c-4.17.38-16.99,1.2-20.64,3.12l-9.26-1.02c-.25-.27-.68-.85-.84-1.18.54,1.09,5.76.92,6.74,1.18.12-.13.85,0,1,0l1.2-.5.2-.9c-.19-.97-1.11-2.04-1.9-2.6-.09-.27-5.93-2.13-6.3-2.3l-.51.17-.49-.17-.6.2c-.33.22-.64,1.61-.74,1.96l-.56-.06-.02.1-.98-.1c-.31.72-.09,1.74.27,2.4l-.77-.2-.14.23h0l.14-.23h-1c-.3-.04-3.36.13-3.5-.2-.23-.46-.7-.99-1-1.4.43-.55,1.85-.89,2.5-1l1.45-1.36c1.03.25,2.41.3,3.45.16l.5-.4c-.02-.84-.64-1.92-1.4-2.3l-7.5-1.1c-.21.14-.77.04-1,0l-1,.3c-.15.07-2.21.57-2.2.8-.12.26-.31.82-.4,1.1-.24.23-1.67.4-1.99.46.17-.15.77-.31.99-.36.46-.15,1.06-.79,1.3-1.2.34-.6.27-1.56.7-2.1l3.2-.9h.39l.61.7.53-.53.47.53.7-.7c.3-.07.9-.12,1.2-.1.55-.13,1.32-.81,1.71-1.21l.89-.07v.08c.35-.17,3.58.45,4,.5.21-.16.77-.05,1,0,.49-.17,2.35-.7,2.7-1.1h0c2.16-1.14,4.74-3.36,5.8-5.6l-.2-.4-.4-.2-.87.07-.13-.07-.2.02c.23-.2.75-.65,1-.82.22-.74-.05-2.19.3-2.9l.5-.4c-.28-.59-.65-1.44-.7-2.1.33-.51.58-1.39.4-2l-.7-.8-.84.19-.16-.19c-.69-.06-1.74.87-2.2,1.3-.85.54-3.4,1.02-4.4,1.2l-.69.69-.21-.49c-.69-.48-1.71-.42-2.4-.9.88-.46,2.64-1.45,3.65-1.54.43.11,1.28.67,1.75.54l.22-.13c.17.13.58.14.78.13.55-.27,1.2-.94,1.8-1.1.56-.63.56-1.8.6-2.6.32-.04,1.56-1.29,1.8-1.5.56-.27,2.11-.96,2.38-1.57.8.87,1.52,2.63,2.32,3.47,1.23.28,3.94-.2,5.2-.4,1.03-.22,3.07-1.67,3.9-2.3,1.63-1.5,3.65-2.56,3.2-5.2h-.2c-.14.33-.49,1-.8,1.2v-1.2h-.2c-.13.3-.47.97-.75,1.15-.71-.06-1.6-.4-2.15-.85l3.7-3.9.1-1.4-.9.6h-.14l.04-.6-.81.54c-1.03-.15-7.39-.14-8.09-1.04.85,0,2.69-.79,3.5-1,.65.36,1.71,1.29,2.51.87.5.29,1.33-.13,1.84-.25l.55.18.14-.29.86.29c.18-.22.23-.71.2-.98l1.7,2.18.5-.2.17-.22.33.42.5-.2c1.55-1.95,4.23-5.02,5.7-7,.03-.42.08-1.27.43-1.58l.57.48c.33-.96,3.69-2.03,4.5-2.4l.3-.5c-.18-.67.47-2.47.7-3.1.01-.89.71-3.14,1-4,.55-1.9.05-4.96.3-6.9,1.87-2.23,3.59-6.84,4.5-9.6-.08-1.11.95-4.42,1.3-5.5.31-.27.78-.97.8-1.4l-1.1-3.6.02-.03Z"/>
  <path class="st0" d="M195.49,65.29c0-.05.06-.47.06-.53l.25.14-.31.39Z"/>
  <path class="st0" d="M430.26,477.1s.13.03.16.04l-.16-.04Z"/>
  <polygon class="st0" points="358.41 589.07 358.41 589.07 358.41 589.07 358.41 589.07"/>
  <polygon class="st0" points="246.22 604.7 246.22 604.7 246.22 604.7 246.22 604.7"/>
  <polygon class="st0" points="244.7 604.97 244.7 604.97 244.7 604.97 244.7 604.97"/>
  <polygon class="st0" points="247.85 605.05 247.85 605.05 247.85 605.05 247.85 605.05"/>
  <polygon class="st0" points="248.95 604.51 248.95 604.51 248.95 604.51 248.95 604.51"/>
  <polygon class="st0" points="220.87 588.52 220.87 588.52 220.87 588.52 220.87 588.52"/>
  <polygon class="st0" points="239.67 237.96 239.67 237.96 239.67 237.96 239.67 237.96"/>
  <polygon class="st0" points="333.8 392.6 333.8 392.6 332.7 392.6 333.8 392.6"/>
  <path class="st0" d="M365.8,412.6h.2-.2Z"/>
  <polygon class="st0" points="372.56 385.14 372.56 385.14 372.56 385.14 372.56 385.14"/>
  <polygon class="st0" points="364.95 382.49 364.95 382.49 364.95 382.49 364.95 382.49"/>
  <polygon class="st0" points="359.04 389.06 359.04 389.06 359.04 389.06 359.04 389.06"/>
  <polygon class="st0" points="357.72 389 357.72 389 357.72 389 357.72 389"/>
  <polygon class="st0" points="395.19 545.58 395.19 545.58 395.19 545.58 395.19 545.58"/>
  <polygon class="st0" points="396.98 545.24 396.98 545.24 396.98 545.24 396.98 545.24"/>
  <polygon class="st0" points="376.2 602.9 376.2 602.9 376.2 602.9 376.2 602.9"/>
  <polygon class="st0" points="261.1 605.7 261.1 605.7 261.5 605.7 261.5 605.7 261.1 605.7"/>
  <path class="st0" d="M250.74,604.74h0Z"/>
  <polygon class="st0" points="265.47 596.36 265.47 596.36 265.47 596.36 265.47 596.36"/>
  <polygon class="st0" points="264.33 604.51 264.33 604.51 264.33 604.51 264.33 604.51"/>
  <polygon class="st0" points="198.77 569.54 198.77 569.54 198.77 569.54 198.77 569.54"/>
  <polygon class="st0" points="200.07 569.28 200.07 569.28 200.07 569.28 200.07 569.28"/>
  <polygon class="st0" points="200.97 569.21 200.97 569.21 200.97 569.21 200.97 569.21"/>
  <polygon class="st0" points="205.34 567.16 205.34 567.16 205.34 567.16 205.34 567.16"/>
  <polygon class="st0" points="231.6 462.8 232.4 462.8 231.6 462.8 231.6 462.8"/>
  <polygon class="st0" points="365.3 595.29 365.3 595.29 365.3 595.29 365.3 595.29"/>
  <polygon class="st0" points="283.81 548.41 283.81 548.41 283.81 548.41 283.81 548.41"/>
  <polygon class="st0" points="252.53 448 252.53 448 252.52 448 252.53 448"/>
  <polygon class="st0" points="252.68 447.77 252.68 447.77 252.68 447.77 252.68 447.77"/>
  <polygon class="st0" points="257.63 300.32 257.63 300.32 257.63 300.32 257.63 300.32"/>
  <polygon class="st0" points="339.4 398.1 339.4 398.1 339.4 398.1 339.4 398.1"/>
  <polygon class="st0" points="355.58 531.43 355.58 531.43 355.58 531.43 355.58 531.43"/>
  <polygon class="st0" points="292.46 549.4 292.46 549.4 292.46 549.4 292.46 549.4"/>
  <polygon class="st0" points="260.4 475.83 260.4 475.83 260.4 475.83 260.4 475.83"/>
  <polygon class="st0" points="257.6 444.8 257.6 444.8 257.6 444.8 257.6 444.8"/>
  <polygon class="st0" points="352.96 456.48 352.96 456.48 352.96 456.48 352.96 456.48"/>
  <polygon class="st0" points="259 440.1 259.2 440.1 259.2 440.1 259 440.1 259 440.1"/>
  <polygon class="st0" points="306.41 553.67 306.41 553.67 306.41 553.67 306.41 553.67"/>
  <path class="st0" d="M298.4,506.43h0Z"/>
  <polygon class="st0" points="300.1 485 300.7 485 300.7 485 300.1 485"/>
  <polygon class="st0" points="297.56 522.97 297.56 522.97 297.56 522.97 297.56 522.97"/>
  <polygon class="st0" points="312.05 494.04 312.05 494.04 312.05 494.04 312.05 494.04"/>
  <polygon class="st0" points="308 499 308 499 308 499 308 499"/>
  <polygon class="st0" points="328.26 484.22 328.26 484.22 328.26 484.22 328.26 484.22"/>
  <polygon class="st0" points="327.42 492.07 327.42 492.07 327.42 492.07 327.42 492.07"/>
  <polygon class="st0" points="330.4 501.3 329.6 501.3 329.6 501.3 330.4 501.3"/>
  <polygon class="st0" points="321.5 539.85 321.5 539.85 321.5 539.85 321.5 539.85"/>
  <polygon class="st0" points="331.52 551.14 331.52 551.14 331.52 551.14 331.52 551.14"/>
  <polygon class="st0" points="333.02 489.37 333.02 489.37 333.02 489.37 333.02 489.37"/>
  <polygon class="st0" points="323.84 485.35 323.84 485.35 323.84 485.35 323.84 485.35"/>
  <polygon class="st0" points="322.81 485.35 322.81 485.35 322.81 485.35 322.81 485.35"/>
  <path class="st0" d="M313.91,494.07h0Z"/>
  <polygon class="st0" points="298.9 434.36 298.9 434.36 298.9 434.36 298.9 434.36"/>
  <polygon class="st0" points="295.3 432.9 295 432.9 295 432.9 295.3 432.9"/>
  <polygon class="st0" points="274.39 422.8 274.39 422.8 274.39 422.8 274.39 422.8"/>
  <polygon class="st0" points="276.73 468.5 276.73 468.5 276.73 468.5 276.73 468.5"/>
  <polygon class="st0" points="268.21 460.24 268.21 460.24 268.21 460.24 268.21 460.24"/>
  <polygon class="st0" points="268.95 431.42 268.95 431.42 268.95 431.42 268.95 431.42"/>
  <polygon class="st0" points="276.1 422.46 276.1 422.46 276.1 422.46 276.1 422.46"/>
  <polygon class="st0" points="275.89 505.11 275.89 505.11 275.89 505.11 275.89 505.11"/>
  <polygon class="st0" points="274.57 376.43 274.57 376.43 274.57 376.43 274.57 376.43"/>
  <polygon class="st0" points="273.5 432.8 273.5 432.8 272.8 432.8 273.5 432.8"/>
  <polygon class="st0" points="266.2 432.14 266.2 432.14 266.2 432.14 266.2 432.14"/>
  <polygon class="st0" points="265.7 438.4 265.7 438.4 266.5 438.4 266.5 438.4 265.7 438.4"/>
  <polygon class="st0" points="267.35 460.32 267.35 460.32 267.35 460.32 267.35 460.32"/>
  <polygon class="st0" points="274.21 518.52 274.21 518.52 274.21 518.52 274.21 518.52"/>
  <polygon class="st0" points="275.05 518.44 275.05 518.44 275.05 518.44 275.05 518.44"/>
  <polygon class="st0" points="277.02 505.14 277.02 505.14 277.02 505.14 277.02 505.14"/>
  <polygon class="st0" points="278.02 468.39 278.02 468.39 278.02 468.39 278.02 468.39"/>
  <polygon class="st0" points="277.38 425.6 277.38 425.6 277.38 425.6 277.38 425.6"/>
  <polygon class="st0" points="283.2 479.31 283.2 479.31 283.2 479.31 283.2 479.31"/>
  <path class="st0" d="M267.52,478.1h0Z"/>
  <polygon class="st0" points="278.11 554.31 278.11 554.31 278.11 554.31 278.11 554.31"/>
  <polygon class="st0" points="278.08 431.97 278.08 431.97 278.08 431.97 278.08 431.97"/>
  <polygon class="st0" points="268.65 414.1 268.65 414.1 268.65 414.1 268.65 414.1"/>
  <polygon class="st0" points="261.11 440.76 261.11 440.76 261.11 440.76 261.11 440.76"/>
  <polygon class="st0" points="263.39 478.14 263.39 478.14 263.39 478.14 263.39 478.14"/>
  <polygon class="st0" points="263.05 478.01 263.05 478.01 263.05 478.01 263.05 478.01"/>
  <polygon class="st0" points="275.8 580.1 275.8 580.1 275.8 580.1 275.8 580.1"/>
  <polygon class="st0" points="288.97 516.38 288.97 516.38 288.97 516.38 288.97 516.38"/>
  <polygon class="st0" points="307.92 517.66 307.92 517.66 307.92 517.66 307.92 517.66"/>
  <polygon class="st0" points="324.77 553.19 324.77 553.19 324.77 553.19 324.77 553.19"/>
  <polygon class="st0" points="347.05 477.82 347.05 477.82 347.05 477.82 347.05 477.82"/>
  <polygon class="st0" points="340.3 436.81 340.3 436.81 340.3 436.81 340.3 436.81"/>
  <polygon class="st0" points="347.11 496.47 347.11 496.47 347.11 496.47 347.11 496.47"/>
  <polygon class="st0" points="351.8 458.7 351.8 458.7 351.8 458.7 351.5 458.7 351.5 458.7 351.8 458.7"/>
  <polygon class="st0" points="345.66 439.13 345.66 439.13 345.66 439.13 345.66 439.13"/>
  <polygon class="st0" points="330.8 444.59 330.8 444.59 330.8 444.59 330.8 444.59"/>
  <polygon class="st0" points="323.91 462.71 323.91 462.71 323.91 462.71 323.91 462.71"/>
  <polygon class="st0" points="317.68 449.25 317.68 449.25 317.68 449.25 317.68 449.25"/>
  <polygon class="st0" points="314.1 479.55 314.1 479.55 314.1 479.55 314.1 479.55"/>
  <polygon class="st0" points="305.83 414.8 305.83 414.8 305.83 414.8 305.83 414.8"/>
  <polygon class="st0" points="286 461.7 286 461.7 285.4 461.7 285.4 461.7 286 461.7"/>
  <polygon class="st0" points="257.41 528.22 257.41 528.22 257.41 528.22 257.41 528.22"/>
  <polygon class="st0" points="259.19 526.24 259.19 526.24 259.19 526.24 259.19 526.24"/>
  <polygon class="st0" points="259.22 526.22 259.22 526.22 259.22 526.22 259.22 526.22"/>
  <polygon class="st0" points="260.13 526.7 260.13 526.7 260.13 526.7 260.13 526.7"/>
  <polygon class="st0" points="275.08 581.3 275.08 581.3 275.08 581.3 275.08 581.3"/>
  <polygon class="st0" points="285.2 551 285.8 551 285.2 551 285.2 551"/>
  <polygon class="st0" points="289.99 516.38 289.99 516.38 289.99 516.38 289.99 516.38"/>
  <polygon class="st0" points="305.72 576.06 305.72 576.06 305.72 576.06 305.72 576.06"/>
  <polygon class="st0" points="308.4 554.68 308.4 554.68 308.4 554.68 308.4 554.68"/>
  <path class="st0" d="M316.74,543.37h0Z"/>
  <path class="st0" d="M325.97,553.14h0Z"/>
  <polygon class="st0" points="327.46 553.16 327.46 553.16 327.46 553.16 327.46 553.16"/>
  <polygon class="st0" points="336.86 570.45 336.86 570.45 336.86 570.45 336.86 570.45"/>
  <polygon class="st0" points="348.91 496.53 348.92 496.53 348.92 496.53 348.91 496.53"/>
  <polygon class="st0" points="343.55 426.33 343.55 426.33 343.55 426.33 343.55 426.33"/>
  <polygon class="st0" points="334.49 489.72 334.49 489.72 334.49 489.72 334.49 489.72"/>
  <polygon class="st0" points="334.77 442.21 334.77 442.21 334.77 442.21 334.77 442.21"/>
  <polygon class="st0" points="324.69 462.68 324.69 462.68 324.69 462.68 324.69 462.68"/>
  <polygon class="st0" points="311.97 418.89 311.97 418.89 311.97 418.89 311.97 418.89"/>
  <polygon class="st0" points="309.65 419.26 309.65 419.26 309.65 419.26 309.65 419.26"/>
  <polygon class="st0" points="255.33 444.44 255.33 444.44 255.33 444.44 255.33 444.44"/>
  <polygon class="st0" points="250.53 522 250.53 522 250.53 522 250.53 522"/>
  <polygon class="st0" points="262.04 528.16 262.04 528.16 262.04 528.16 262.04 528.16"/>
  <polygon class="st0" points="267.02 526.53 267.02 526.53 267.02 526.53 267.02 526.53"/>
  <polygon class="st0" points="273.28 550.56 273.28 550.56 273.28 550.56 273.28 550.56"/>
  <polygon class="st0" points="274.02 581.29 274.02 581.29 274.02 581.29 274.02 581.29"/>
  <polygon class="st0" points="304.04 575.91 304.04 575.91 304.04 575.91 304.04 575.91"/>
  <polygon class="st0" points="306.88 609.18 306.88 609.18 306.88 609.18 306.88 609.18"/>
  <polygon class="st0" points="319.05 544.37 319.05 544.37 319.05 544.37 319.05 544.37"/>
  <polygon class="st0" points="335.96 570.45 335.96 570.45 335.96 570.45 335.96 570.45"/>
  <polygon class="st0" points="345.93 540.19 345.93 540.19 345.93 540.19 345.93 540.19"/>
  <polygon class="st0" points="352.68 537.21 352.68 537.21 352.68 537.21 352.68 537.21"/>
  <polygon class="st0" points="379.4 595.65 379.4 595.65 379.4 595.65 379.4 595.65"/>
  <polygon class="st0" points="369.13 579.24 369.13 579.24 369.13 579.24 369.13 579.24"/>
  <polygon class="st0" points="380.4 583.9 379.9 583.9 380.4 583.9 380.4 583.9"/>
  <polygon class="st0" points="383.6 592.1 383.6 592.1 383.6 592.1 383.6 592.1"/>
  <polygon class="st0" points="380.35 595.3 380.35 595.3 380.35 595.3 380.35 595.3"/>
  <polygon class="st0" points="376.78 597.83 376.78 597.83 376.78 597.83 376.78 597.83"/>
  <polygon class="st0" points="372.84 587.86 372.84 587.86 372.84 587.86 372.84 587.86"/>
  <polygon class="st0" points="367.74 585.71 367.74 585.71 367.74 585.71 367.74 585.71"/>
  <polygon class="st0" points="369.9 587.1 369.9 587.1 369.9 587.1 369.9 587.1"/>
  <polygon class="st0" points="370.9 582.48 370.9 582.48 370.9 582.48 370.9 582.48"/>
  <polygon class="st0" points="387.36 585.94 387.36 585.94 387.36 585.94 387.36 585.94"/>
  <polygon class="st0" points="385.05 584.7 385.05 584.7 385.05 584.7 385.05 584.7"/>
  <polygon class="st0" points="388.43 589.23 388.43 589.23 388.43 589.23 388.43 589.23"/>
  <polygon class="st0" points="384.8 580.6 384.8 580.6 384.8 580.6 384.8 580.6"/>
  <polygon class="st0" points="379.8 587.3 379.8 587.4 379.8 587.4 379.8 587.3 379.8 587.3"/>
  <polygon class="st0" points="382.04 590.49 382.04 590.49 382.04 590.49 382.04 590.49"/>
  <polygon class="st0" points="379.41 588.63 379.41 588.63 379.41 588.63 379.41 588.63"/>
  <polygon class="st0" points="380.05 594.78 380.05 594.78 380.05 594.78 380.05 594.78"/>
  <polygon class="st0" points="381.73 590.74 381.73 590.74 381.73 590.74 381.73 590.74"/>
  <polygon class="st0" points="378.6 584.1 378.6 584.1 378.6 584.1 378.6 584.1 378.6 584.1 378.6 584.1"/>
  <polygon class="st0" points="377.97 584.37 377.97 584.37 377.97 584.37 377.97 584.37"/>
  <polygon class="st0" points="375.9 587 375.9 587 375.9 587 375.9 587"/>
  <polygon class="st0" points="375.44 587 375.44 587 375.44 587 375.44 587"/>
  <polygon class="st0" points="374.47 587.32 374.47 587.32 374.47 587.32 374.47 587.32"/>
  <polygon class="st0" points="376.9 584.4 376.9 584.4 376.9 584.4 376.9 584.4"/>
  <path class="st0" d="M376.18,584.46h0Z"/>
  <polygon class="st0" points="374.14 585.31 374.14 585.31 374.14 585.31 374.14 585.31"/>
  <polygon class="st0" points="374.2 587.6 374.2 587.6 374.2 587.6 374.2 587.6 374.2 587.6 374.2 587.6"/>
  <polygon class="st0" points="391.6 584.8 391.6 584.8 391.6 584.8 391.6 584.8"/>
  <polygon class="st0" points="383.34 585.35 383.34 585.35 383.34 585.35 383.34 585.35"/>
  <polygon class="st0" points="366.69 585.76 366.69 585.76 366.69 585.76 366.69 585.76"/>
  <polygon class="st0" points="371.8 587.4 371 587.4 371 587.4 371.8 587.4 371.8 587.4 371.8 587.4"/>
  <polygon class="st0" points="374.24 591.69 374.24 591.69 374.24 591.69 374.24 591.69"/>
  <polygon class="st0" points="377.08 590.7 377.08 590.7 377.08 590.7 377.08 590.7"/>
  <polygon class="st0" points="380.63 595.38 380.63 595.38 380.63 595.38 380.63 595.38"/>
  <polygon class="st0" points="383.48 591.97 383.48 591.97 383.48 591.97 383.48 591.97"/>
  <polygon class="st0" points="388.6 589.53 388.6 589.53 388.6 589.53 388.6 589.53"/>
  <polygon class="st0" points="375.1 577.06 375.1 577.06 375.1 577.06 375.1 577.06"/>
  <polygon class="st0" points="368.12 534.26 368.12 534.26 368.12 534.26 368.12 534.26"/>
  <polygon class="st0" points="378.28 589.56 378.28 589.56 378.28 589.56 378.28 589.56"/>
  <polygon class="st0" points="383.39 595.76 383.39 595.76 383.39 595.76 383.39 595.76"/>
  <polygon class="st0" points="386.6 594.75 386.6 594.75 386.6 594.75 386.6 594.75"/>
  <polygon class="st0" points="390.7 589.02 390.7 589.02 390.7 589.02 390.7 589.02"/>
  <polygon class="st0" points="359.93 501.6 359.93 501.6 359.93 501.6 359.93 501.6"/>
  <polygon class="st0" points="360.1 501.5 360.1 501.5 360.1 501.5 360.1 501.5"/>
  <polygon class="st0" points="373.47 598.1 373.47 598.1 373.47 598.1 373.47 598.1"/>
  <polygon class="st0" points="376.04 597.91 376.04 597.91 376.04 597.91 376.04 597.91"/>
  <polygon class="st0" points="386 595.2 386 595.2 386 595.2 386 595.2 386 595.2 386 595.2 386 595.2"/>
  <polygon class="st0" points="387.18 595.14 387.18 595.14 387.18 595.14 387.18 595.14"/>
  <polygon class="st0" points="390.07 589.08 390.07 589.08 390.07 589.08 390.07 589.08"/>
  <polygon class="st0" points="369.71 552.54 369.71 552.54 369.71 552.54 369.71 552.54"/>
  <polygon class="st0" points="349.18 434.52 349.18 434.52 349.18 434.52 349.18 434.52"/>
  <polygon class="st0" points="339.4 398.1 339.4 398.1 339.2 398.1 339.4 398.1"/>
  <polygon class="st0" points="335.87 442.32 335.87 442.32 335.87 442.32 335.87 442.32"/>
  <polygon class="st0" points="333.44 423.54 333.44 423.54 333.44 423.54 333.44 423.54"/>
  <polygon class="st0" points="321.4 437.33 321.4 437.33 321.4 437.33 321.4 437.33"/>
  <path class="st0" d="M252.93,447.98l.37.32c.15-.19.44-.59.56-.8h0c-.13.21-.41.61-.56.8l-.37-.32h0Z"/>
  <polygon class="st0" points="255.77 476.99 255.77 476.99 255.77 476.99 255.77 476.99"/>
  <polygon class="st0" points="248.65 522.7 248.65 522.7 248.65 522.7 248.65 522.7"/>
  <polygon class="st0" points="231.33 491.64 231.33 491.64 231.33 491.64 231.33 491.64"/>
  <polygon class="st0" points="242.28 508.32 242.28 508.32 242.28 508.32 242.28 508.32"/>
  <polygon class="st0" points="238.11 511.17 238.11 511.17 238.11 511.17 238.11 511.17"/>
  <path class="st0" d="M244.62,525.44h0Z"/>
  <polygon class="st0" points="235.85 490.55 235.85 490.55 235.85 490.55 235.85 490.55"/>
  <polygon class="st0" points="218.06 593.23 218.06 593.23 218.06 593.23 218.06 593.23"/>
  <polygon class="st0" points="245.47 558.49 245.47 558.49 245.47 558.49 245.47 558.49"/>
  <polygon class="st0" points="248.56 557.08 248.56 557.08 248.56 557.08 248.56 557.08"/>
  <polygon class="st0" points="256.1 563.8 256.3 563.8 256.3 563.8 256.1 563.8"/>
  <polygon class="st0" points="258.9 565.1 258.9 565.1 258.9 565.1 258.9 565.1"/>
  <polygon class="st0" points="265.09 525.97 265.09 525.97 265.09 525.97 265.09 525.97"/>
  <polygon class="st0" points="267.96 606.29 267.96 606.29 267.96 606.29 267.96 606.29"/>
  <polygon class="st0" points="276.33 602.7 276.33 602.7 276.33 602.7 276.33 602.7"/>
  <polygon class="st0" points="277.8 621.5 278 621.5 278 621.5 277.8 621.5"/>
  <polygon class="st0" points="291.83 627.42 291.83 627.42 291.83 627.42 291.83 627.42"/>
  <polygon class="st0" points="297.26 626.62 297.26 626.62 297.26 626.62 297.26 626.62"/>
  <polygon class="st0" points="304.89 609.02 304.89 609.02 304.89 609.02 304.89 609.02"/>
  <polygon class="st0" points="314.21 601.92 314.21 601.92 314.21 601.92 314.21 601.92"/>
  <polygon class="st0" points="330.72 600.17 330.72 600.17 330.72 600.17 330.72 600.17"/>
  <polygon class="st0" points="334.64 570.65 334.64 570.65 334.64 570.65 334.64 570.65"/>
  <polygon class="st0" points="338.17 570.34 338.17 570.34 338.17 570.34 338.17 570.34"/>
  <polygon class="st0" points="342.32 585.94 342.32 585.94 342.32 585.94 342.32 585.94"/>
  <polygon class="st0" points="343.68 586.04 343.68 586.04 343.68 586.04 343.68 586.04"/>
  <polygon class="st0" points="346.64 540.16 346.64 540.16 346.64 540.16 346.64 540.16"/>
  <polygon class="st0" points="348.2 539.2 348.2 539.2 348.2 539.2 348.7 539.2 348.7 539.2 348.2 539.2"/>
  <polygon class="st0" points="357.82 532.57 357.82 532.57 357.82 532.57 357.82 532.57"/>
  <polygon class="st0" points="370.47 594.88 370.47 594.88 370.47 594.88 370.47 594.88"/>
  <polygon class="st0" points="378.77 595.71 378.77 595.71 378.77 595.71 378.77 595.71"/>
  <polygon class="st0" points="384.56 595.48 384.56 595.48 384.56 595.48 384.56 595.48"/>
  <polygon class="st0" points="384.9 595.3 384.9 595.3 384.9 595.3 384.9 595.3 384.9 595.3 384.9 595.3 384.9 595.3"/>
  <polygon class="st0" points="386.77 605.48 386.77 605.48 386.77 605.48 386.77 605.48"/>
  <polygon class="st0" points="392.7 590.51 392.7 590.51 392.7 590.51 392.7 590.51"/>
  <polygon class="st0" points="387.31 550.52 387.31 550.52 387.31 550.52 387.31 550.52"/>
  <polygon class="st0" points="383.15 547.85 383.15 547.85 383.15 547.85 383.15 547.85"/>
  <polygon class="st0" points="378.43 549.74 378.43 549.74 378.43 549.74 378.43 549.74"/>
  <path class="st0" d="M375.35,541.63h0Z"/>
  <polygon class="st0" points="367.02 431 367.02 431 367.02 431 367.02 431"/>
  <polygon class="st0" points="364.15 430.49 364.15 430.49 364.15 430.49 364.15 430.49"/>
  <path class="st0" d="M356.38,439.25h0Z"/>
  <polygon class="st0" points="351.6 395.24 351.6 395.24 351.6 395.24 351.6 395.24"/>
  <path class="st0" d="M336.91,422.88h0Z"/>
  <path class="st0" d="M315.4,331.7h-.6.6Z"/>
  <polygon class="st0" points="265.89 244.41 265.89 244.41 265.89 244.41 265.89 244.41"/>
  <path class="st0" d="M244.4,445.6c.83,1.09,2.47,2.64,3.8,3.1l-.02-.54h0l.02.54c.71.37,2.19.79,3,.8l.02-.13h0l-.02.13c.1,0,.54.03.62-.05l.38.05.04-.24h0l-.04.24c.35.1,1.09-.25,1.4-.4l.3-1.1c.26-.47,1.96-.69,2.42-.8-.1.13-.35.47-.52.5h0c-.12.08-.46.17-.6.2l-.4-.2-.8,1c-.18.44.03,1.29.2,1.7l-1.3.8h0l-.59.17c-.47-.14-1.12-.61-1.58-.23-.33-.22-.81-.16-1.12.06-.07.21-.2.58-.2.8-.89.2-2-.62-2.6-1.2-.07.12-.23.49-.28.63h0c.06-.14.21-.5.28-.63-1.22-.8-2.4-4.77-2.94-6.03l.54.83h0Z"/>
  <polygon class="st0" points="209.7 499.63 209.7 499.63 209.7 499.63 209.7 499.63"/>
  <path class="st0" d="M209.12,499.66h0Z"/>
  <polygon class="st0" points="206.97 500.08 206.97 500.08 206.97 500.08 206.97 500.08"/>
  <polygon class="st0" points="205.86 500.02 205.86 500.02 205.86 500.02 205.86 500.02"/>
  <polygon class="st0" points="199 509.04 198.9 509.2 198.9 509.2 198.9 509.2 199 509.04 199 509.04"/>
  <polygon class="st0" points="197.36 569.46 197.36 569.46 197.36 569.46 197.36 569.46"/>
  <polygon class="st0" points="202.7 566.7 202.7 566.7 204 566.7 204 566.7 202.7 566.7"/>
  <path class="st0" d="M215.13,579.19h0Z"/>
  <polygon class="st0" points="225.69 589.1 225.69 589.1 225.69 589.1 225.69 589.1"/>
  <polygon class="st0" points="226.93 589.16 226.93 589.16 226.93 589.16 226.93 589.16"/>
  <path class="st0" d="M231.6,591.9h.1-.1Z"/>
  <polygon class="st0" points="233.1 591.85 233.1 591.85 233.1 591.85 233.1 591.85"/>
  <polygon class="st0" points="260.97 563.36 260.97 563.36 260.97 563.36 260.97 563.36"/>
  <polygon class="st0" points="264.14 562.2 264.14 562.2 264.14 562.2 264.14 562.2"/>
  <polygon class="st0" points="270.46 552.11 270.46 552.11 270.46 552.11 270.46 552.11"/>
  <polygon class="st0" points="262.9 598.4 262.9 598.4 261.8 598.4 262.9 598.4"/>
  <polygon class="st0" points="252.12 602.47 252.12 602.47 252.12 602.47 252.12 602.47"/>
  <polygon class="st0" points="291.33 627.64 291.33 627.64 291.33 627.64 291.33 627.64"/>
  <polygon class="st0" points="296.34 626.42 296.34 626.42 296.34 626.42 296.34 626.42"/>
  <polygon class="st0" points="305.87 630.37 305.87 630.37 305.87 630.37 305.87 630.37"/>
  <polygon class="st0" points="309.4 607.77 309.4 607.77 309.4 607.77 309.4 607.77"/>
  <polygon class="st0" points="311.12 608.18 311.12 608.18 311.12 608.18 311.12 608.18"/>
  <polygon class="st0" points="318.28 599.12 318.28 599.12 318.28 599.12 318.28 599.12"/>
  <polygon class="st0" points="332.9 598.83 332.9 598.83 332.9 598.83 332.9 598.83"/>
  <polygon class="st0" points="335.24 600.1 335.24 600.1 335.24 600.1 335.24 600.1"/>
  <path class="st0" d="M347.29,585.2h0Z"/>
  <path class="st0" d="M347.31,585.19h0Z"/>
  <path class="st0" d="M349.45,584.67h0Z"/>
  <path class="st0" d="M352.65,589.94h0Z"/>
  <polygon class="st0" points="354.3 587.26 354.3 587.26 354.3 587.26 354.3 587.26"/>
  <polygon class="st0" points="357.78 588.98 357.78 588.98 357.78 588.98 357.78 588.98"/>
  <polygon class="st0" points="393.39 545.45 393.39 545.45 393.39 545.45 393.39 545.45"/>
  <polygon class="st0" points="150.18 314.57 150.18 314.57 150.18 314.57 150.18 314.57"/>
  <polygon class="st0" points="152.79 315.12 152.79 315.12 152.79 315.12 152.79 315.12"/>
  <polygon class="st0" points="158.24 311.74 158.24 311.74 158.24 311.74 158.24 311.74"/>
  <polygon class="st0" points="159.57 311.92 159.57 311.92 159.57 311.92 159.57 311.92"/>
  <polygon class="st0" points="160.7 311.8 160.7 311.8 162.7 311.8 160.7 311.8"/>
  <polygon class="st0" points="228.3 208.8 228.3 208.8 228.3 208.8 227.7 208.8 227.7 208.8 228.3 208.8"/>
  <polygon class="st0" points="227.53 218.51 227.53 218.51 227.53 218.51 227.53 218.51"/>
  <polygon class="st0" points="229.1 218.7 229.1 218.7 229.1 218.7 229.1 218.7"/>
  <polygon class="st0" points="230.32 207.04 230.32 207.04 230.32 207.04 230.32 207.04"/>
  <path class="st0" d="M248.26,188.83h0Z"/>
  <polygon class="st0" points="224.38 220.88 224.38 220.88 224.38 220.88 224.38 220.88"/>
  <path class="st0" d="M220.54,220.45h0Z"/>
  <path class="st0" d="M207.5,226.3h0l.4-.4h0l-.4.4Z"/>
  <path class="st0" d="M180.61,249.78h0Z"/>
  <path class="st0" d="M186.99,241.74h0Z"/>
  <polygon class="st0" points="188.06 241.73 188.06 241.73 188.06 241.73 188.06 241.73"/>
  <polygon class="st0" points="189.32 240.07 189.32 240.07 189.32 240.07 189.32 240.07"/>
  <polygon class="st0" points="179.97 240.79 179.97 240.79 179.97 240.79 179.97 240.79"/>
  <polygon class="st0" points="183.73 249.13 183.73 249.13 183.73 249.13 183.73 249.13"/>
  <polygon class="st0" points="192.2 240.2 192.2 240.2 191.8 240.2 192.2 240.2"/>
  <polygon class="st0" points="179.41 234.85 179.41 234.85 179.41 234.85 179.41 234.85"/>
  <polygon class="st0" points="161.56 245.16 161.56 245.16 161.56 245.16 161.56 245.16"/>
  <path class="st0" d="M170.5,261.2h-1.5,1.5Z"/>
  <path class="st0" d="M167,245.6h-1.1,1.1Z"/>
  <polygon class="st0" points="170.77 302.19 170.77 302.19 170.77 302.19 170.77 302.19"/>
  <polygon class="st0" points="175.1 301.71 175.1 301.71 175.1 301.71 175.1 301.71"/>
  <polygon class="st0" points="176.26 303.07 176.26 303.07 176.26 303.07 176.26 303.07"/>
  <polygon class="st0" points="184.41 290.04 184.41 290.04 184.41 290.04 184.41 290.04"/>
  <polygon class="st0" points="198.47 277.86 198.47 277.86 198.47 277.86 198.47 277.86"/>
  <polygon class="st0" points="213.68 221.5 213.68 221.5 213.68 221.5 213.68 221.5"/>
  <polygon class="st0" points="216.8 219.88 216.8 219.88 216.8 219.88 216.8 219.88"/>
  <path class="st0" d="M209.77,224.39h0Z"/>
  <path class="st0" d="M204.1,223.5v-.5c.42.26,1.17,1.17,1.48,1.56l-1.48-1.06h0Z"/>
  <path class="st0" d="M204.54,153.37h0Z"/>
  <polygon class="st0" points="210.13 224.33 210.13 224.33 210.13 224.33 210.13 224.33"/>
  <polygon class="st0" points="218.52 220.53 218.52 220.53 218.52 220.53 218.52 220.53"/>
  <polygon class="st0" points="201.73 153.92 201.73 153.92 201.73 153.92 201.73 153.92"/>
  <polygon class="st0" points="194.46 156.11 194.46 156.11 194.46 156.11 194.46 156.11"/>
  <polygon class="st0" points="191.57 156.47 191.57 156.47 191.57 156.47 191.57 156.47"/>
  <polygon class="st0" points="179.16 162.61 179.16 162.61 179.16 162.61 179.16 162.61"/>
  <path class="st0" d="M160,216.4l.18-.27c.08.37-.84,1.68-1.01,1.99l.83-1.72Z"/>
  <path class="st0" d="M157.3,228.2c-.1-.32-.38-1.15-.3-1.48l.39,1.62-.09-.14Z"/>
  <path class="st0" d="M165.1,268.9l.2-.12h0c-.11.11-.45.19-.6.22l.4-.1h0Z"/>
  <polygon class="st0" points="173.02 302.57 173.02 302.57 173.02 302.57 173.02 302.57"/>
  <path class="st0" d="M182.64,289.89h0Z"/>
  <polygon class="st0" points="185.67 289.28 185.67 289.28 185.67 289.28 185.67 289.28"/>
  <polygon class="st0" points="189.48 291.53 189.48 291.53 189.48 291.53 189.48 291.53"/>
  <polygon class="st0" points="196.92 277.48 196.92 277.48 196.92 277.48 196.92 277.48"/>
  <path class="st0" d="M201.28,277.82h0Z"/>
  <polygon class="st0" points="204.39 325.51 204.4 325.6 204.37 325.53 204.39 325.51"/>
  <polygon class="st0" points="213.15 291.27 213.15 291.27 213.15 291.27 213.15 291.27"/>
  <polygon class="st0" points="219.69 281.65 219.69 281.65 219.69 281.65 219.69 281.65"/>
  <polygon class="st0" points="221.92 281.87 221.92 281.87 221.92 281.87 221.92 281.87"/>
  <polygon class="st0" points="224.1 281.4 226.2 281.4 226.2 281.4 224.1 281.4"/>
  <polygon class="st0" points="229.11 287.1 229.11 287.1 229.11 287.1 229.11 287.1"/>
  <polygon class="st0" points="284.92 138.09 284.92 138.09 284.92 138.09 284.92 138.09"/>
  <polygon class="st0" points="274.56 140.47 274.56 140.47 274.56 140.47 274.56 140.47"/>
  <polygon class="st0" points="286.47 138.18 286.71 138.18 286.71 138.18 286.47 138.18"/>
  <polygon class="st0" points="221.2 132.2 221.2 132.2 221.1 132.2 221.2 132.2"/>
  <path class="st0" d="M213.5,91.5c.14-.24.41-.91.51-1.18l.69,1.58c-.28.07-.88.25-1.14.39l-.46-.39.4-.4h0Z"/>
  <path class="st0" d="M140.2,167.4c.26-.21.64-.67.7-1,.16-.5.99-1.26,1.39-1.58-.42,1.11-2.97,3.78-3.79,4.66.04-.34.13-1.04.2-1.38.36-.37,1.08-.4,1.5-.7Z"/>
  <polygon class="st0" points="141.9 191.2 142.11 191 141.47 191.91 141.9 191.2"/>
  <polygon class="st0" points="121.48 207.09 121.36 207.71 121.3 207.5 121.48 207.09"/>
  <path class="st0" d="M118.1,236.2v-1.9l2-2.3.3-1.6c.52-.18,1.06-.84,1.5-1.1-.08.22-.32.56-.5.7l.2.4c.04.71-3.63,6.1-4.03,6.8l.53-1h0Z"/>
  <polygon class="st0" points="143.2 232.3 143.24 232.44 143.1 232.2 143.14 232.17 143.2 232.3"/>
  <path class="st0" d="M144.16,234.27l1.24,1.63c0,.12.09,1.82.14,1.89l-1.38-3.52Z"/>
  <path class="st0" d="M153.9,219.9l-.5-1.5.36-.47c.58.94.58,2.56.54,3.63l-.4-1.66Z"/>
  <path class="st0" d="M156.2,225.7l.22.06-.42,1.14c-.05-.32.06-.91.2-1.2Z"/>
  <polygon class="st0" points="218.27 450.99 218.3 450.6 218.3 450.6 218.27 450.99"/>
  <path class="st0" d="M185.31,460.75c-.26.74-1.17,1.23-1.78,1.59.27-.53,1.28-1.28,1.78-1.59Z"/>
  <path class="st0" d="M186.41,458.53c.04-.09.4-.47.47-.55l-.47.55Z"/>
  <path class="st0" d="M161.3,565.2h.3-.3Z"/>
  <path class="st0" d="M164.01,564.73h0Z"/>
  <polygon class="st0" points="163.88 544.01 163.98 543.66 163.98 543.66 163.88 544.01"/>
  <polygon class="st0" points="141.2 574.2 141.02 573.66 141.2 573.8 141.2 574.2"/>
  <path class="st0" d="M154.1,568.9l-.5-.3h-.8c.37-.34,1.82-.44,2.3-.5l-.8,1.5.24,1.54-.44-.44c.12-.46.25-1.37,0-1.8Z"/>
  <polygon class="st0" points="215.53 595.26 216.14 594.96 216.14 594.96 215.53 595.26"/>
  <path class="st0" d="M221.4,651.5v-.25c.09.09.18.39.22.5l-.22-.25Z"/>
  <path class="st0" d="M206.7,613.82h0Z"/>
  <polygon class="st0" points="185.5 666.4 185.5 666.4 185.5 666.4 185.5 666.4"/>
  <polygon class="st0" points="186.3 664.2 186.3 664.2 186.6 664.2 186.6 664.2 186.3 664.2"/>
  <path class="st0" d="M153.1,660.7c.56.21,1.84.72,2.3,1.1l.29.57c-.66.02-1.79-.06-2.29-.57-.11.11-.27.3-.41.37l-.23-.14c-.09-.56-.12-1.46-.27-2.01l.61.68h0Z"/>
  <path class="st0" d="M267.8,658.3l-.4-.7.09-.48c.08-.04.77,1.3.81,1.35l-.5-.17Z"/>
  <path class="st0" d="M331.7,640.7l-.31.81c.16-1.73-.98-2.16-2.09-3.11.45-.24,2.29-.31,2.81-.35l.69.35c-.08.63-.73,1.78-1.1,2.3Z"/>
  <path class="st0" d="M440.8,552.2c-.69-.37-2.13-1.74-2.7-2.3v-.27c.19-.14,2.44,1.78,2.6,1.87l1.4.5.49.63-1.79-.43h0Z"/>
  <path class="st0" d="M165.1,612.3l-.3.1c-.08.49-.12,1.5-.1,2l.4.5.3-.4c0-.33,0-1.09-.1-1.4h0c.05-.2-.12-.62-.2-.8h0Z"/>
  <path class="st0" d="M93.4,190.7l-.7-.7c-.21,0-.7-.03-.87.13l-.13-.13c-1.07-.21-1.74.91-2.2,1.7l1.2,1.1c1.26.32,3.31.15,4.6.1-.17-.75-1.32-1.77-1.9-2.2h0Z"/>
  <path class="st0" d="M96.7,263.2c1.22-.56,2.53-1.77,3.1-3l.3.6c.08-.89.87-1.43,1.6-1.8.06-.61-.29-1.41-.4-2-.02-.48.02-1.43.1-1.9h0c-.51-.21-1.21-.58-1.3-1.2.1-.56.36-1.32.4-1.9-2.28-1.97-2.36-2.38-2.5-5.4l-.6-4.7c-.12-.73.06-3.92-.7-4.4l-.4-.1-.39.39-.21-.29-.4-.1c-.27.27-.83.83-1.1,1.1-.52.37-1.35.59-1.9.9l-1.2,1.7-1.7,1c-.79.65-2.03,2.16-2.4,3.12,0-.73.54-2.69.9-3.32l-.6-.2-.5.4.1-.2-.6-.2c-.29.2-.85.73-1.1,1l-2.5,1.2c-1.05.72-2.35,1.39-2.2,2.9-.02,1.14-.19,2.58-1.3,3.2l1.6,1.1c-.6.88-2.46,3.44-2.6,4.5l.3.1.2.4.2.1c-.37.69-.76,2.11-.7,2.9l.6.7.88-.14.12.14,1.3-.2c1.01-1.16,2.13-3.3,3.6-4,.95-1.26,1.28-4.13,2.7-5,.86-.26,1.96.02,2.7.5-.85.81-2.65,2.65-3.3,3.6l-.2,1.5c.3-.18,1.93.88,2.2,1,.64.36,1.36,2.96,1.6,3.6-.92.5-3.01,1.73-3.5,2.7l-.3,1.8.7,1.9,1.1.4.47-.19.53.19c.98-.28,2.13-1.15,2.8-1.9.23-.24.43-1.78.5-2.1l.37-.18c.27.03,1.34.27,1.57.09.46.22,1.61-.16,2.06-.3h0Z"/>
  <path class="st0" d="M63.1,191.6l1.1-.2.9-.8.1-1.4,2.8-.4.7-1.1-.6-1.5h-2.2l-2.4.9h0c-1.29.15-2.65,1.53-3.9,1.8-.83.14-3.51.42-4.1,1.1.36,1.09.61,2.66,1.1,3.7l3,1.4.81-.09.19.09.9-.1-.2-1.5.8-1.5,1-.4Z"/>
  <path class="st0" d="M117.8,216.1l-.4-.6h0l-.65.53-.35-.53h0c-1.08.79-2.55,2-2.8,3.4l1.04-.09-.04.09c1.2,0,2.79-.47,3.5-1.5l-.3-1.3h0Z"/>
  <path class="st0" d="M100,178.8l.1-.4c-.55-.19-2.48-.67-2.8-1.2l-.87.11-.13-.11c-1.61.06-3.66.71-4.8,1.9l-.1,1.6-.09.09c-.1-.03-.45-.61-.51-.69l-.6.6-.4-.6c-.61.99-2.16,1.12-3.2,1.2.1,1.05,1.25,1.95,1.6,2.9l-2.2,1.7c3.4,3.94,7.62-.27,9.4,6.2l.5.4c.14-.06.47-.22.56-.36l.44.36c.41-.12.74-.6,1.1-.8.76.17,2.71-1.01,3.35-1.35.61.63.2,1.8.05,2.55-.32.47-2.68,1.45-3.19,1.7-.2,0-.89-.17-1.05,0-.34-.08-.97-.12-1.26.1-.95.94-.8,3.01-1.8,3.9-1.44.05-2.08,1.57-1.6,2.8l.9.8c1.3.25,3.25-.07,4.5-.5.12-.03,2.7-1.68,2.83-1.63l.17.23c-.51.64-2.32,2-3,2.5l-3.3.7c-.23.21-.91.82-1.21.93l-1.39-.33-.35.16-.65-.16-.9.4c.2.11.45.33.6.5l.4.1v.6l-.23.16c-.49-.69-.98-1.9-1.67-2.46-.33-.09-1.06-.27-1.37-.08-.87-.33-2.08.34-2.73.88-.86,1.65.14,3.82,1.4,5,.77.36,1.91,1.23,2.8,1.1l.17-.1c.14.13.65.1.83.1.85-.29.73-1.21,1.3-1.7h4.3c.32-.2,1.36-.8,1.7-1,.25.2.77.51,1.1.5l.33-.22c.1.12.53.19.67.22.42-.18,1.12-.95,1.4-1.3l3.7-1.9c.36-.1,1.78-.36,2-.7l.6-1.2c.09-.23.95-.44,1.15-.52l.25.32c0,1.01-.69,1.71-1.4,2.3l1.5,1,.72-.19.28.19c1.46.04,4.86-2.51,6-3.3.43-.4,1.14-1.29,1.2-1.9l-.8-.4-.82.09-.18-.09c-.3.05-1.95.14-2.16.38.58-.44,1.71-1.48,1.96-2.18l-.17-.94c.25.31.16.87.17,1.24.88.56,2.21.21,3.2.3l.6-.5c-.2-.84-.82-2.04-1.32-2.73.1-.02.44.28.52.33l.05-.43c.31.03.73.21.95.43l.2-1.7-.5-.3-.68.19-.32-.19c-.15-1.18-1.05-2.86-2.2-3.3l-.65.14s-.31-.13-.35-.14l-.41.09c-.54-.39-1.17-1.87-1.69-2.29-.26-.1-.74-.1-1,0-.3-.09-.84-.13-1.1.07-.13-.18-.43-.52-.6-.67-1.02-.1-4.23.24-5.2-.2-.23-2.09-2.07-6.18-3.3-7.9l-1.5-.1c.1-.25.17-1.02.2-1.3h0Z"/>
  <path class="st0" d="M93.5,223.6l-.3.2h0l-.03.05-.67-.25-.3.2h0c-.45.8-1.49,1.86-1.7,2.8-.09.95-.41,2.2-1.3,2.7.58.38,1.72.75,2.41.53,1.01.24,2.33-.4,3.09-1.03-.67-1.9,1.01-4.24,1.9-5.8l-.2-1c-.25-.02-.75,0-.97.16l-.03-.16c-.66-.1-1.43.43-2.1.4.03.35.16.84.4,1.1l-.13.13s-.07-.03-.07-.03Z"/>
  <polygon class="st0" points="103.07 119.64 102.3 119.5 101.2 120.2 101.5 121.4 102.5 122.5 103.8 123 104.29 122.8 104.8 123 106.3 122.4 106.1 121.1 104.9 119.8 103.3 119.5 103.07 119.64"/>
  <polygon class="st0" points="104.3 102.7 104.3 102.7 104.3 102.7 104.3 102.7"/>
  <path class="st0" d="M333.2,648.1l-.2-.1c-.07.02-.43.12-.5.1v-1c-.22-.19-.68-.61-1-.6-.39.08-.99,0-1.37.03l-6.93-2.83h-2.1c-1.36.84-2.51,3.03-3.94,3.72.08-.21.11-.64.24-.82l-1.17.56c.02-.14.09-.44.17-.56-2.69,1.21-5.98,2.51-7,5.6.34-.22,1.06-.66,1.43-.81l-.43.81c.79-.5,1.93-1.28,2.9-.9,2.18,1.62,6.93,5.94,9.7,6.5l.49-.15.51.15,5.2-1.6c.29-.69.15-2.07.1-2.8.41-.88,1.61-1.83,2.5-2.2.52-.19,1.88-.36,2.1-1h.2v-.6l-.9-1.5h0Z"/>
  <path class="st0" d="M43.5,106.2l.1-.1v-.3c-.6.04-1.31.03-1.6-.6l-.5.5c-.17-.02-.41-.37-.5-.5l-.47.47c-.18,0-.59-.37-.73-.47h-2.1c-1.18.75-1.78,2.46-1.8,3.8l.5,1c.8.47,3.96,2.66,4.9,2.6l.46-.13.54.13,4.1-1.2c.07-.35-.1-.92-.3-1.2-.43-.3-1.3-.34-1.8-.3l-.4-.3-.3-.9h.9l.68-.62.02.02s.37-.36.4-.4l.6.4.3-.6c-.19-.13-1.37-1.12-1.6-1.1-.13.03-.47.11-.58.19-.07-.08-.32-.16-.42-.19-.03,0-.43.1-.44.12l-.16-.12s.2-.2.2-.2Z"/>
  <path class="st0" d="M116.9,376.2c.27.26.65.83.7,1.2l.4.1c.1-.05.45-.22.54-.29l.06.19.4.1c.18-.08.54-.28.7-.4l.3-1.7h0l.2-.1.6.2c2.03-1.63,4.02-4.4,3.33-7.15l.37.45.7-.1.07-.17.23.27.7-.1.5-1.2.7-.4-.6-.8.2-.7c.32-.23.87-.78,1.1-1.1.13-.7.05-2.03-.2-2.7.14-.94,1.04-2.11,1.5-2.9v-.4l-.2-.3c-.08-.32.15-.92.3-1.2-.67-.74-2.02-2.65-2-3.7-.07-.49-.2-3.48-.6-3.8l-.8-.5c-.57-1.11-1.26-3.55-1.4-4.8.03-.32-.02-.93-.2-1.2-.67.03-1.09-.65-1.3-1.2h0c-.1-.15-.3-.45-.4-.6l-.9.14-.1-.14-5.31.84-.39-.04c-.33-.3-1.07-.69-1.5-.8l-.48.19-.52-.19c-.72.12-2.06,1.23-2.6,1.7l-1.6.8c-.42.28-1.23,1.67-1.5,2.1v.1c-.28.23-.67.72-.83,1.04-.13-.4-.05-1.13-.27-1.54l-.6-.4c.65-1.09,1.47-3.02,2.3-4l-.2-.4.08-.49h0l-.08.49.2.4c2.87-3.89,7.79-1.4,8.8-7.1h0c.44-2.92-.94-6.97-4.2-7.5l-.14.25-.86-.25-.46.8c-.16-1.1-.57-2.4-1.24-3.3-.39-.39-1.01-1.01-1.4-1.4-.41-.63-.52-1.82-.8-2.5-.97-1.62-2.7-3.27-4.7-3.3-.29-1.66,1.48-4.27.5-5.9l-.3-.2c-.07.05-.47.58-.53.66h0c.06-.08.45-.61.53-.66-.84-.97-2.29-.57-3.4-.7l-.4-.8c1.14-1.81,1.13-5.64,1.2-7.7-.45-.73-1.79-2.61-2.6-3-.16-.46-.88-.92-1.3-1.1l-1.9-.3c-.24.11-.75.06-1,0-.85.08-2.31.85-3.14.99-1.13-.3-4.85-3.02-6.06-2.99l-.27.18-.73-.18-1.45.96c-.32-.04-1.85-.99-2.15-1.16l-.85.09-.15-.09c-1.3-.09-2.45,1.04-3.3,1.9.14.17.4.55.5.75h0c-.1-.2-.36-.58-.5-.75-.1.45-.73.98-1.1,1.2l-3.3.2-5.3,2.5-3.9.2h0c-1.64.39-2.89-.73-4.1-1.6h-.8l-.02.13-.18-.13h-.8c-.2.79-.43,4.03-.5,4.9-1.28,1.39-2.19,3.37-2,5.3-.86.4-1.45,1.8-2.3,2.2-.88.17-2.16.2-2.9-.4-.07.06-.27.3-.34.38h0c.06-.08.26-.32.34-.38-.6-.34-1.74-1.04-2.45-.72-.54-.26-2.04.35-2.55.52l.4-1.5-.9.3-.3.45.2-.75-.9.3c-.31.51-.83,1.14-1.2,1.6l-2.9.4c-.88.5-1.9,2.25-2.4,3.1l.2.7c-.05.1-.31.17-.4.2-.54,1.04.62,2.94-.3,3.9h0c-.38.29-1.19.49-1.4,1-.16.63.02,2.35.1,3,.13.59-.32,2.03-.5,2.6-.34,1.13-3.44,4.74-4.2,5.7-.27,1.04-.77,3.1,0,4v.2l-.25.12-.65-.33-.64.18-.36-.18-.88.25-1.12-.35-.36.2-.64-.2c-1.62.71-2.78,3.21-4.81,3.14-.84-.29-2.21-1.27-2.79-1.94h-.6l-.19.19-.21-.19h-.6l-1.6,1.6-2.4,1.2c.21.16.89.68,1.1.8l-.4,1.2.4.8c.52.41,1.42.71,2,1,.15.31.56,1.16.8,1.4l.4.1.43-.32.17.22.4.1.57-.43c.6.34,1.71,1.6,2.43,1.73l.46-.23.54.23c.17-.09.88-.42,1.02-.55l.08,1.35c-2.76.34-5.59,5.38-8.27,5.85-.63.1-3.85-.72-4.53-.85l-.15.19-.85-.19c-.86,1.01-1.99,2.47-2.5,3.7-.32.59-1.36,1.14-1.9,1.5-.84.21-2.91.77-3.6,1.3l.6.6c.06.32.16.98.2,1.3,1.02,1.11,2.74,3.43,3.6,4.7.94,1.19,2,2.02,3.6,1.8.56,1.35,1.26,3.61,2.4,4.6.22.02.64.13.8.3.6.08,2.2.25,2.6.8.63,1.61-.11,4.7,1.1,6.1,1.96,1.28,4.91.71,7.1.8.32.28,3.63,2.75,3.7,3.1.05.35.15,1.05.2,1.4.1.44,5.19,1.46,5.6,1.6.26-.09.75-.12,1,0,.83.13,2.25-1.25,2.81-1.72l.29.02-.6.7c.28.18.79.05,1.1.2.09.2.35.8.4,1l.2.1.7-.2.08.03.02.07.2.1.15-.04,1.85.64c.14-.03.56-.12.7-.1h0l.3.1c.14-.03.56-.12.7-.1-.17-.43-1.2-2.34-1-2.8.13-.28.57-.59.84-.71-.14.88-.27,2.04-.04,2.91.21-.09.82-.3.9-.55-.02.15.04.42.1.55,1.23-.31,1.83-1.98,1.4-3.1l.9-.5-.1-.4c-.16-.15-.5-.5-.6-.7.35-2.84,3.4-2,5-3.5l-.3-1.3.7-.9-1.7-1.4.3-1.1-1.6-.8-.1-.9c.13-.03.47.06.6.1l.2-.4.1.1.3-.8c-.21-.42-.63-1.1-.2-1.5h.4l.09-.06c.22.04.69.08.91.06l1.5-1.1c.69-1.14,2.54-4.31,3.7-5l.52-.04c1.09.3,3.51,2.41,4.37,3.14.35.34.68,1.44.8,1.9.2.14.66.28.9.3.32.14.68,1.31.8,1.6h0c.25.62.63,1.93.6,2.6l-.4.8-.8.5c2.39.93,2.12,1.29,2.7,3.6.93,1.56,2.41,3.56,4.3,3.9l.21-.21c.11.13.63.19.79.21.38-.26.58-.9,1-1.08.66.38,1.52,1.31,2,1.88h0l.2-.3h0l-.2.3c.35.21.52,1.54.6,1.9-.09.9-.88,2.17-1.5,2.8l.5.9c.05.62-.58,2.22-.8,2.8.86.56,1.72,2.12,2.7,2.5.09-.08.27-.27.34-.38l.66.38c.35-.25.52-.81.82-1.08.25.15.66.08.9-.04.7.56,4.24-1.51,4.98-1.38.03.41.46.8.8,1,.19.04.59-.08.77-.16l.23.16c.72-.04,1.86-.57,2.6-.6,1.04-.85-.04-2.32.82-3.29.03.07.51.44.58.49.14-.03.66-.08.76-.19l.24.19c.33,0,.88-.21,1.13-.4l.57.4.3-.5.7.5.11-.18c.07.1,1.46.16,1.59.18l1.2.5.6,1.4c.31-.08,3.82,1.28,4.2,1.4-.29.01-1.14.47-1.4.6v.4c.37.31,1.08.88,1.6.8.63-.03,2.14-.08,2.8-.2,2.17-.9,3.8-3.59,6.1-4.3,1.63-1.99,2.01-5.01,2.1-7.5h-1.2,1.2c-.03-.75-.22-3.04.2-3.7,1.05-.32,2.87-.84,3.9-1.3.88-.21,2.81-.04,3.7.1h.01Z"/>
  <path class="st0" d="M121.5,365.1l-2,.6c-.43.26-2.26,1.47-2.74,1.54.03-.4,1.67-1.5,1.94-1.74.37-.44,1.49-4.39,1.7-5l-.4-.5.3-.5c-.03-.13.06-.47.1-.6l-.6-.2h0c-.47-.71-.3-1.82-.1-2.6l-1.4-.8.3-.4c.47-.07,1.38-.3,1.8-.5-.34-.46-1.79-.54-2.3-.6-.47-.17-.89-.73-1.3-1h-.7c.57-.45,1.02-1.27,1-2-.11-.27-.38-.93-.3-1.23,1.41-.06,3.92,3.02,4.9,3.83,1.13,1.47,1.46,4,1.5,5.8l-.2,1.2-1.1,1.4c-.53,1.04-.19,2.46.54,3.32l-.72.22-.22-.23h0Z"/>
  <polygon class="st0" points="122.71 365.33 123 365.5 123.06 365.7 122.71 365.33"/>
  <polygon class="st0" points="118.2 346.2 116.9 346.2 118.2 346.2 118.2 346.2"/>
  <polygon class="st0" points="39.72 360.86 39.72 360.86 39.72 360.86 39.72 360.86"/>
  <path class="st0" d="M40.52,360.85h0Z"/>
  <polygon class="st0" points="43.15 360.11 43.15 360.11 43.15 360.11 43.15 360.11"/>
  <polygon class="st0" points="43.9 360.01 43.9 360.01 43.9 360.01 43.9 360.01"/>
  <polygon class="st0" points="49.69 316.22 49.69 316.22 49.69 316.22 49.69 316.22"/>
  <polygon class="st0" points="47.8 358.18 47.8 358.18 47.8 358.18 47.8 358.18"/>
  <polygon class="st0" points="48.09 358.11 48.09 358.11 48.09 358.11 48.09 358.11"/>
  <polygon class="st0" points="80.45 333.05 80.45 333.05 80.45 333.05 80.45 333.05"/>
  <polygon class="st0" points="77.63 320.14 77.63 320.14 77.63 320.14 77.63 320.14"/>
  <polygon class="st0" points="81.57 365.63 81.57 365.63 81.57 365.63 81.57 365.63"/>
  <polygon class="st0" points="88.38 348.77 88.38 348.77 88.38 348.77 88.38 348.77"/>
  <polygon class="st0" points="82.88 365.29 82.88 365.29 82.88 365.29 82.88 365.29"/>
  <polygon class="st0" points="84.26 363.91 84.26 363.91 84.26 363.91 84.26 363.91"/>
  <polygon class="st0" points="95.66 360.97 95.66 360.97 95.66 360.97 95.66 360.97"/>
  <polygon class="st0" points="101.91 365.53 101.91 365.53 101.91 365.53 101.91 365.53"/>
  <polygon class="st0" points="104.46 365.21 104.46 365.21 104.46 365.21 104.46 365.21"/>
  <path class="st0" d="M98.63,332h0Z"/>
  <polygon class="st0" points="89.02 332.24 89.02 332.24 89.02 332.24 89.02 332.24"/>
  <polygon class="st0" points="88.05 332.23 88.05 332.23 88.05 332.23 88.05 332.23"/>
  <polygon class="st0" points="87.08 332.24 87.08 332.24 87.08 332.24 87.08 332.24"/>
  <path class="st0" d="M80.64,333.07h0Z"/>
  <polygon class="st0" points="75.1 359.1 75.3 359.1 75.3 359.1 75.1 359.1"/>
  <polygon class="st0" points="76.03 359.1 76.03 359.1 76.03 359.1 76.03 359.1"/>
  <path class="st0" d="M88.28,364.15h0Z"/>
  <polygon class="st0" points="94.05 360.68 94.05 360.68 94.05 360.68 94.05 360.68"/>
  <polygon class="st0" points="95.07 360.88 95.07 360.88 95.07 360.88 95.07 360.88"/>
  <polygon class="st0" points="96.62 376.41 96.62 376.41 96.62 376.41 96.62 376.41"/>
  <polygon class="st0" points="98.97 375.87 98.97 375.87 98.97 375.87 98.97 375.87"/>
  <polygon class="st0" points="101.07 381.65 101.07 381.65 101.07 381.65 101.07 381.65"/>
  <polygon class="st0" points="103.67 365.27 103.67 365.27 103.67 365.27 103.67 365.27"/>
  <polygon class="st0" points="96.54 316.4 96.54 316.4 96.54 316.4 96.54 316.4"/>
  <polygon class="st0" points="95.06 331.04 95.06 331.04 95.06 331.03 95.06 331.04"/>
  <polygon class="st0" points="91.93 332.86 91.93 332.86 91.93 332.86 91.93 332.86"/>
  <polygon class="st0" points="90.05 332.2 90.05 332.2 90.05 332.2 90.05 332.2"/>
  <polygon class="st0" points="85.94 332.15 85.94 332.15 85.94 332.15 85.94 332.15"/>
  <polygon class="st0" points="83.71 333.3 83.71 333.3 83.71 333.3 83.71 333.3"/>
  <polygon class="st0" points="74.43 378.47 74.43 378.47 74.43 378.47 74.43 378.47"/>
  <polygon class="st0" points="74.84 378.45 74.84 378.45 74.84 378.45 74.84 378.45"/>
  <polygon class="st0" points="77.04 377.36 77.04 377.36 77.04 377.36 77.04 377.36"/>
  <polygon class="st0" points="78.08 377.38 78.08 377.38 78.08 377.38 78.08 377.38"/>
  <polygon class="st0" points="83.62 374.1 83.62 374.1 83.62 374.1 83.62 374.1"/>
  <polygon class="st0" points="84.63 374.14 84.63 374.14 84.63 374.14 84.63 374.14"/>
  <polygon class="st0" points="85.47 374.34 85.47 374.34 85.47 374.34 85.47 374.34"/>
  <polygon class="st0" points="86.63 374.51 86.63 374.51 86.63 374.51 86.63 374.51"/>
  <polygon class="st0" points="86.88 374.58 86.88 374.58 86.88 374.58 86.88 374.58"/>
  <polygon class="st0" points="88.2 374.72 88.2 374.72 88.2 374.72 88.2 374.72"/>
  <polygon class="st0" points="89.02 374.79 89.02 374.79 89.02 374.79 89.02 374.79"/>
  <polygon class="st0" points="93.28 376.03 93.28 376.03 93.28 376.03 93.28 376.03"/>
  <polygon class="st0" points="94.27 376.01 94.27 376.01 94.27 376.01 94.27 376.01"/>
  <polygon class="st0" points="102.6 381 102.6 381 102.6 381 102.6 381"/>
  <polygon class="st0" points="103.94 380.75 103.94 380.75 103.94 380.75 103.94 380.75"/>
  <polygon class="st0" points="105.97 381.39 105.97 381.39 105.97 381.39 105.97 381.39"/>
  <path class="st0" d="M114.16,330.85c-.48-.18-1.52-.78-1.96-1.05l-.29-1.35,2.25,2.4Z"/>
  <path class="st0" d="M61.4,369.5l-.2.1c.11-.08.64-.25.71-.27-.05.02-.51.17-.51.17h0Z"/>
  <path class="st0" d="M164.1,612.3l-.3.1c-.08.49-.12,1.5-.1,2l.4.5.3-.4c0-.33,0-1.09-.1-1.4h0c.05-.2-.12-.62-.2-.8h0Z"/>
  <polygon class="st0" points="169.8 632.5 169.8 632.5 169.8 632.5 169.8 632.5"/>
  <path class="st0" d="M102.48,249.55l.92.05,1.2-.8c.42-1.25.51-4.01,1.1-5.2.65-.12,1.62-1.32,2-1.8l.5.1c.32-2.3,3.83-9.06,4.9-11.2.41-.91,1.88-5.1,2.8-5.6.25-.59.93-1.68,1.5-2,.02-.89-.02-2.15-.3-3l-1-.5-.41.29-.59-.29c-.99.53-3.01,2.58-3.8,3.4h0c-.86.77-3.68,4.17-5,4-1.88,1.6-3.74,4.16-4.3,6.6l.7,1.4.97-.06.03.06,1.6-.1c.31-.08,1.6-.54,1.9-.4l-1.6,1.3-3.6.7c-.54.45-1.74,1.49-2.2,2-.44.16-1.18.66-1.5,1-.95,2.53-.31,6.43.6,8.9l1.7,1.1,1.8.1s.08-.05.08-.05Z"/>
  <path class="st0" d="M70.2,182.8l-1.3.2c.22.76.65,1.82,1.2,2.4.04-.2.22-.99.27-1.17.13.33.49.92.73,1.17.08-.37.26-1.16.35-1.51l.75.31.53-.2.47.2c1.87-.6,3.9-3.1,4.9-4.7h.6c1.56-.74,1.77-2.96,2.6-4.3h0l.3-.9-.4-.3-.76.18-.24-.18c-.51.12-1.61.37-2.1.5l-1.4,1.3c-.76.11-2.05,1.1-2.6,1.6-1.02,1.33-2.44,4.46-3.9,5.4Z"/>
  <path class="st0" d="M132,258.4c-2.71,3.63-2.61,8.15.5,11.5-.23.36-.26.93-.7,1.1,0,1.31.89,3.15.7,4.5,2.12,2.26,5.36,3.98,8.5,4,1.59-.08,4.02-.18,5-1.7l-.1-1.4c-.28-.57-.64-1.76-.6-2.4l1.1-.7c-.28-.15-2.19-.89-2.3-1.2l-.3-1.1.4-.3h.7l.5-.3-.1-1.8-2.1-2.1.6-1.2c-.66-2.56-1.21-6.44-3.4-8.2-.18-.07-3.28-1.62-3.4-1.6-.6.06-1.69,0-2.3.1.11.33.29.87.4,1.2l-1.6.3-1.5,1.3h0Z"/>
  <path class="st0" d="M76.1,143.5c1.24.02,2.78-.19,3.8-1-.6-.58-1.73-.47-2.2-1.2l-.82.18-.18-.18c-1.09.1-2.45,1.18-3.3,1.8.65.23,2.01.4,2.7.4Z"/>
  <path class="st0" d="M83.3,144l-2.8,3.2c.71.18,1.85,1.56,2.3,2.1.39.12,1.09.53,1.4.8l.8,2,.8.5.85-.09.15.09,1.8-.2,1.3-.8c.76-1.02,1.33-3.66,1.5-4.9h-1.2v-.6l.9-.8c-.57-.89-2.61-2.25-3.5-2.8l-.8.13-.2-.13-1.8.3-1.5,1.2h0Z"/>
  <polygon class="st0" points="103.3 102.7 103.3 102.7 103.3 102.7 103.3 102.7"/>
  <path class="st0" d="M103.3,102.7c.01-.1-.03-1.41.02-1.5-.09.14.24.96.28,1.1l.7.4c-.15-.94.42-3.75.6-4.7l-.3-.5-.3.1c-.09.12-.34.46-.43.56l.03-.16-.3-.5-.3.1c-.16.22-.52.68-.7.9.04.24.27.5.4.7-.62.84-.92,2.14-.4,3.1l.7.4h0ZM103.75,98.85s.22.31.25.35l-.48.88.22-1.23h.01Z"/>
  <path class="st0" d="M98.8,117.6h0c-.1.35-.29.92-.3,1.3l.8.5.59-.25.41.25c.43-.12,1.17-.61,1.5-.9.43-.12,1.17-.61,1.5-.9-.03-1.11-.63-2.62-1.3-3.5-.17-1.47.25-4.3.7-5.7.32-1.39,1.74-3.97.1-5l-.4-.1c.23.42.75,1.4.6,1.9l-.43-.29c.16-.62-.35-1.14-.77-1.51l-.4-.1c.01.06.67,1.25.6,1.3h-.4l-.18.21-.32-.21h-.5l-.5.6c.23.53.58,1.33.9,1.8v.5l-1.3.2-.8.7c-.42,1.88-.79,6.57-.6,8.5l.5.7h0ZM101.98,107.5l.02-.08v.08h-.02Z"/>
  <path class="st0" d="M42.1,127.6l.38-.17.62.17.9-.4c.59-1.16.68-3.01,1.6-4,.3-.11.81-.44,1-.7l.2-1.3-.7.1c-.53-.46-1.03-1.29-1.5-1.8h0c-.85-.52-2.07-.07-2.9-.6-.11-.19-.61-1.21-.8-1.3-.48-.18-1.37-.79-1.9-.5l-.4-.2c-.02-.86-.42-1.67-1.1-2.2l.45-.25c.41.31,1.25,1.52,1.55,1.95,1.18.59,2.61,1.98,3.8,2.5l.48-.26.52.26,1.3-.7v-.6l-1.1-.1-1.5-1.4-1-.2v-.3h.2l.22-.16c.18.07.59.2.78.16l.4-.3-4.2-3c-.22-.04-.57.04-.75.18l-.25-.18c-.98.03-2.72,1.28-3.5,1.8.57,2.06,2.3,5.56,1.5,7.7l-.6.2c-.45.54-.38,1.55-.6,2.2-.3.91-.86,2.28-1.5,3l.6.1c.36.28,1.04,1.22,1.3,1.6.08.38-.17,1.24-.3,1.6l.2,1.4c.2.69,1.22,4.98,1.6,5.5l1.3,1.6.67-.4.33.4,1.25-.75,3.15.65.17-.17.83.17,1.1-1.1v-.6l-1-.1c-.65-.64-1.1-1.8-1.9-2.3-.19,0-.79,0-.96.03l-.04-.03c-.64-.08-1.59.24-2.2,0v-.6c.81-.05,1.87.02,2.5.6l.24-.48.76.48c1.03-1.65.53-4.15,0-5.9-.37-.9-3.11-1.45-3.9-1.7v-.33l2.7.73h0Z"/>
  <path class="st0" d="M32.3,98.1c.23.13.74.37,1,.4.02-.02.33-.21.33-.24.15.1.5.2.67.24.35-.17.61-.64.85-.92.39-.15,3.01,1.83,3.35,2.02l1.6.1-.9.7h-.4c.3.37.67.91.7,1.4.08.14.66,1.08.7,1.2.84.65,2.08.48,3.06.46l.64.54.49-.43.51.43.8-.7c.41-.09,1.47-.03,1.9,0l.03-.05.97.05c.21-.4,1.17-1.93,1.1-2.4-.19-.94-1.37-1.28-2.2-1.3-.19.12-.79.02-1,0-1.24.47-3.78,1-5.1.8v-.7l1.79-1.51c.13.3.37,1.36.71,1.51.21.07.58-.14.75-.25l.25.25c.4.09.92-.45,1.3-.5,2.74-.22,3.76-.14,4.8-3l-1.19.4.19-.4-1.24.41c-.33-.4-.46-1.41-.46-1.91l-.4-.4-.93.07-.07-.07-.4.03v-.63l.3-.5-.1-.4-.3-.2h-.5v-.7h1.1l1,1.1c.27.06.75.25.9.5.11.39.51,1.02.8,1.3l.6.1.3-.22.1.12.6.1c.67-.35,1.05-1.82,1.6-2.3l-.4-1.1-.9-.5c-.42.02-1.3,0-1.7-.1h0l-.6-.4-.57.29-.43-.29-.84.42-.36-.22.8-.5c.49-.88.28-1.7-.4-2.4l-.9.14-.1-.14c-1.65-.13-3.01,1.95-4.5,2.3l.6.6h.4v.5l-2.6-1.1c.21-.46.57-1.4,1-1.7v-.6c-.59.5-1.56,1.65-1.94,2.33l-.06-.03c.21-.46.57-1.4,1-1.7v-.6c-1.21.94-2.25,3.11-3.4,4.1l-.4-.6c.26-.14,1-.59,1.3-.6v-.6l-1,.19v-.19l-2.44.46-.76-.46-.24.45-.76-.45c-1.13,1.67-1.34,4.4-3.2,5.5v.6c.48.34,2.29,1.68,2.8,1.9h0ZM41.1,99.7l-.7.54v-.54l.05-.04.65.04Z"/>
  <path class="st0" d="M32.7,152.6c.25-.06.75-.1,1,0,.67,0,1.46-.41,1.8-1l-.2-.8c.83-.37,1.06-1.25,1.71-1.73l.49.03-.08-.08,1.08.08c-.54-.36-.62-1.21-.7-1.8-.19-.87-1.51-1.44-2.2-1.8.3-.13.86-1.52,1-1.8-.24-.32-.61-.51-1-.6-.09-.12-.35-.46-.4-.6h-.3l-.08.67-.22-.07c-.09-.12-.35-.46-.4-.6h-.3l-.3,2.4c-.42.45-1.39.93-2,1l-1.2.8.5.6c.11.49.08,1.43-.1,1.9-.64.41-1.54.88-1.9,1.6v.8c.39.47,3.22.87,3.8,1h0Z"/>
  <path class="st0" d="M51.3,71c.3-.01.82-.17,1.05-.37l-.05.37c.32,0,.86-.19,1.1-.4.13-.23.38-.75.39-1.03l.81.53.5-.3v-.02l.5.32.5-.3v-1.9l-.8-.6-.62.28-.38-.28c-.88.14-2.42,1.8-3,2.4v.3h.1c.02.13-.08.86-.1,1ZM52.96,69.04l-.09.09.03-.12.06.04h0Z"/>
  <path class="st0" d="M49.7,50.1l.2.4-.2,1c.37.23,1.5,2.99,1.7,3.4.24-.02.64-.23.83-.39l.17.39c.27,0,.73-.3.93-.46-.14.26-.48.61-.73.76h1.3v.48l-.1.02-.03.06c-.25-.14-.7-.16-.97-.06-.23.27-.44.95-.5,1.3,1.46.14,3.4-.19,4.79-.68-1.31.81-3.21,1.85-4.79,1.88.02.07.12.33.1.4l.2.2v.5l-.09.09-.91-.09c-.61.55-1.21,1.52-1.9,2l2.2,1.7h.4l.29-.24.31.24h.14l.26.9,1.2.4c.08,0,.97-.05,1,0,.5-.01,2-.17,2.4.2,1.73,2.04,2.16,1.57,4.6,1.6v.6c-.22.03-1,.49-1.2.6.06.26.25.58.45.75-.37-.1-.88.13-1.25-.05-.99-.02-2.99,1.19-3.8,1.7v.6l2.24,1.75c-.99-.05-2.29-.13-3.24.25-.22.82-2.94,3.19-3.55,3.79-.05-.47-.37-1.11-.75-1.39-.26-.1-.73-.09-.98.02l-.02-.02c-.32-.16-.98,0-1.3.1-.12.6.51,1.22.6,1.8.3,0,3.05,3.72,3.3,4,.69.2,2.57,2.99,3.2,3.3l.47-.47c.1.15.37.38.53.47l.9-.9h0c.8-.55,3.32-2.17,3.8-3-.21-.15-.34-.53-.6-.6.71-.65,1.85-1.57,2.2-2.5-.32-.25-.6-.84-.9-1.1l.06-.15c.53.43,1.71,1.3,2.44,1.25v-.2l1,.2v-.5h-.3v-.55c.08-.07.7.04.8.05.42-.06,1.16-.35,1.5-.6l.2-.7c-.28-.61-1.08-2.45-1.7-2.8-.34-.16-1.2-.59-1.5-.8.31-.46.57-1.19.87-1.65.59.69,4.08,1.41,4.93,1.65l-.03-.26,1.03.26c-.12-.6-.05-2.29-.6-2.7-.48-.07-.88-.61-1.1-1h.4c.13-.12.32-.34.46-.44.09.22,1.53.92,1.74,1.04l.21-.42.79.42.3-.6-.3-.6c.1.23.72.82.9,1l.9.2.29-.16.71.16,1.1-.6v-.6c-.29-.1-.42-.51-.7-.6v-.35c.25.17.8.33,1.1.35l.22-.19c.11.1.64.17.78.19.85-.54,1.5-1.81,1.9-2.7l.5-.3v-.6l-.7-.9c-.79-.19-1.93-.57-2.4-1.3-.36-.13-1.2-.44-1.4-.8l.16-.38c1.7.48,5.26,1.34,6.94.68.73-.76,1.51-2,2.2-2.8-.77.05-1.65.04-2.2-.6.69-.07,1.22-.68,1.6-1.2-.12-.11-.53-.57-.7-.6.21-1.23-.09-2.97-1.2-3.7-.09.02-.76.08-.8.17l-.2-.17c-.54-.1-1.68.73-2.1,1-.42.08-6.69,1.76-6.9,1.5v-.66c.59.19,2.61-.45,3.2-.64l.98-.9.42.3c.21.02.62,0,.78-.16l.22.16c1.08.29,2.21-1.79,2.8-2.4.78-.15,2.7-.49,3.2-1.2-.07-.25-.24-.85-.3-1.1.08-.25.4-.64.6-.8-.42-.63-1.26-3.2-1.51-3.95.42.3,1.32.84,1.81.95.22-.03.81-.16,1,0,.4-.06,1.55-.31,1.9,0,.39.31,1.43,1.22,2,1.1l.24-.15c0,.06.72.14.76.15.69-.31,1.22-.91,1.5-1.6.29-.6,1.35-1.02,1.9-1.3-.05-.22-.21-1-.3-1.2.27-.33.37-.94.6-1.3h-.3v-.6l.5-.6c-.29-.13-.8-.05-1.08.09l.08-.09c-3.55-.32-3.5,5.36-8.3,3.3l-.8-1.4c.67-.04,1.8-.03,2.2-.7.23-.67-.22-1.45,0-2.1l1.4-.6.5-1.2c.24-.21.78-.39,1.1-.4l.4-.4.1-.6-.3-.8c.84-1.05,2.67-2.46,3.9-3v-.6c-.9.12-1.89-.51-2.3-1.3.48-1.12.73-4.34,2.3-4.6.12-.65-.66-1.89-1-2.4-.2-2.01-1.11-4.4-2.6-5.8l-1.1-.1-.09.08-.91-.08c-1.01.69-2.98,3.38-3.7,4.4l-8.3,6.5c-.23.28-1.25,1.78-1.6,1.9-1.57.91-3.88,2.36-5.8,2-.38.21-.68.72-1,1l-.6-.4c-.45,1.21-3.84,4.04-4.8,4.9.2,0,.62,0,.8.1.1.28.36.84.5,1.1-.4.04-.75.3-1,.6.18.58.59,1.35,1,1.8-.01.33.2.99.3,1.3.2.02.77-.06.97-.1l.03.1h.3c.64,1.84.03,2.63,2.2,3.6l-.66.96c-.31-.88-1.73-1.71-2.54-2.06l-.67.17-.33-.17-.8.2-.4.4-2.1.5c-.15.4-.2,1.03-.38,1.43-.79-.71-1.67-2.19-1.81-3.25l.38.03v-.07l1,.07v-.6l-2.5-1.2-.39.29-.61-.29-.07.05c-.51-.27-1.81-.99-2.23-1.35l-.37.45-.63-.45c-1.09,1.01-1.44,2.38-1,3.8.26.41,1.27.91,1.7,1.1-.63.5-3.72.62-4.5.7v.5c.3.16.6.54.9.7-.15.29-.22.8-.5,1l-.4.1v.9c-.49.58-.81,1.7-.4,2.4l.4.2h0ZM69.1,64.2c-.98-.75-1.08-3.33-2.1-4.1.63-.27,1.65-1.18,2.09-1.69-1.15,2.4.16,4.69,1.23,6.8-.21-.41-.76-.92-1.23-1h.01ZM74.1,55.2v.6c-.97.02-2.85.15-3.65.75.09-.33.19-1.01.15-1.35h3.5ZM61.2,47.9l.4.6-.06.67c-.25-.44-.56-1.53-.67-2.03l.33.75h0Z"/>
  <polygon class="st0" points="44.6 86 44.6 86 44.6 86 44.6 86"/>
  <path class="st0" d="M61,40.3l.6.3v.6h-.7v.6h4.9c-.14-.88-.59-1.83-1.3-2.4l-.5.3c-.45-.55-1.61-2.13-2.4-2.2l-.13.39-.87-.39c-.5.87-.14,2.04.4,2.8Z"/>
  <path class="st0" d="M45.86,86.02c1.13.32,2.41-.66,3.04-1.52l-.5-.9-.89.2-.11-.2-.9.2-1.9,2.2c.13,0,1.18.16,1.26.02Z"/>
</svg>