<?xml version="1.0" encoding="UTF-8"?>
<svg id="Layer_1" xmlns="http://www.w3.org/2000/svg" version="1.1" viewBox="0 0 126 65">
  <!-- Generator: Adobe Illustrator 29.8.5, SVG Export Plug-In . SVG Version: 2.1.1 Build 2)  -->
  <defs>
    <style>
      .st0 {
        fill: #fff;
      }
    </style>
  </defs>
  <path class="st0" d="M6.06,29.48c-2.45.55-4.44.55-6.06-.75l2.51-3.07c.83.64,2.29.61,3.57.32,1.55-.35,2.29-1.03,2.29-1.95,0-.38-.09-.67-.31-.87-.2-.16-.54-.24-1.06-.19l-1.93.16c-1.41.12-2.49-.11-3.21-.69-.74-.6-1.1-1.59-1.1-2.96,0-2.92,2.2-5.54,5.84-6.35,2.29-.51,4.02-.36,5.39.7l-2.47,3.02c-1.01-.78-2.33-.42-3.03-.26-1.37.31-1.93,1.22-1.93,1.91,0,.2.07.48.31.67.2.16.54.28,1.1.23l1.93-.16c1.44-.12,2.47.09,3.14.62.85.64,1.19,1.75,1.19,3.23,0,3.25-2.81,5.65-6.18,6.4h0Z"/>
  <path class="st0" d="M20.3,20.47l-2.4.54v5.69l-3.93.88v-15.96l6.33-1.42c3.55-.79,5.46,1.29,5.46,3.91s-1.91,5.56-5.46,6.36h0ZM20.12,13.76l-2.22.5v3.23l2.22-.5c1.08-.24,1.71-1.17,1.71-2s-.63-1.47-1.71-1.23h0Z"/>
  <path class="st0" d="M37.49,20.65c-1.17,1.42-2.51,2.36-4.47,2.8-1.95.44-3.3.11-4.47-.79-1.69-1.3-1.62-3.56-1.62-5.96s-.07-4.62,1.62-6.68c1.17-1.42,2.51-2.36,4.47-2.8,1.95-.44,3.3-.11,4.47.79,1.69,1.3,1.62,3.56,1.62,5.96s.07,4.62-1.62,6.68ZM34.59,11.06c-.29-.32-.85-.5-1.57-.34-.72.16-1.28.6-1.57,1.05-.36.55-.58,1.14-.58,4.05s.22,3.38.58,3.77c.29.32.85.52,1.57.36.72-.16,1.28-.62,1.57-1.07.36-.55.58-1.12.58-4.03s-.22-3.4-.58-3.79Z"/>
  <path class="st0" d="M49.15,19.7l-2.83-5.31-1.32.3v5.94l-3.93.88V5.55l6.33-1.42c3.55-.79,5.46,1.29,5.46,3.91,0,2.18-1.35,3.84-2.6,4.75l3.46,5.88-4.56,1.02ZM47.22,7.69l-2.22.5v3.23l2.22-.5c1.08-.24,1.71-1.17,1.71-2s-.63-1.47-1.71-1.23h0Z"/>
  <path class="st0" d="M61.92,4.38v12.46l-3.93.88V5.26l-3.93.88v-3.49l11.79-2.64v3.49l-3.93.88Z"/>
  <path class="st0" d="M72.92,10.09v4.23l-2.4.54v-4.23l-4.24.95v-2.39l4.24-.95v-4.21l2.4-.54v4.21l4.24-.95v2.39l-4.24.95Z"/>
  <path class="st0" d="M9.59,45.71l-2.83-5.31-1.33.3v5.94l-3.93.88v-15.95l6.33-1.42c3.55-.79,5.46,1.29,5.46,3.91,0,2.17-1.35,3.84-2.6,4.75l3.46,5.88-4.56,1.02h0ZM7.66,33.71l-2.22.5v3.23l2.22-.5c1.08-.24,1.71-1.17,1.71-2s-.63-1.47-1.71-1.23Z"/>
  <path class="st0" d="M15.46,44.4v-15.95l10.87-2.43v3.49l-6.94,1.56v2.67l5.93-1.33v3.49l-5.93,1.33v2.8l6.94-1.55v3.49l-10.87,2.43Z"/>
  <path class="st0" d="M33.75,40.43c-1.86.42-3.28.11-4.45-.79-1.68-1.3-1.62-3.56-1.62-5.96s-.07-4.62,1.62-6.68c1.17-1.43,2.58-2.37,4.45-2.79,3.03-.68,5.48.45,6.06,3.84l-4,.9c-.25-.84-.74-1.54-2.04-1.25-.72.16-1.26.57-1.55,1.02-.36.55-.61,1.17-.61,4.08s.25,3.42.61,3.81c.29.32.83.48,1.55.32,1.3-.29,1.8-1.21,2.04-2.16l4-.9c-.58,3.65-3.03,5.88-6.06,6.56Z"/>
  <path class="st0" d="M49.34,36.81l-2.83-5.31-1.33.3v5.94l-3.93.88v-15.95l6.33-1.42c3.55-.79,5.46,1.29,5.46,3.91,0,2.17-1.35,3.84-2.6,4.75l3.46,5.88-4.56,1.02h0ZM47.41,24.8l-2.22.5v3.23l2.22-.5c1.08-.24,1.71-1.17,1.71-2s-.63-1.47-1.71-1.23h0Z"/>
  <path class="st0" d="M55.22,35.49v-15.95l10.87-2.43v3.49l-6.94,1.56v2.67l5.93-1.33v3.49l-5.93,1.33v2.8l6.94-1.56v3.49l-10.87,2.43Z"/>
  <path class="st0" d="M77.54,30.49l-.74-2.21-4.92,1.1-.79,2.55-4.11.92,5.82-17.26,3.03-.68,5.82,14.65-4.11.92h0ZM74.42,21.29l-1.44,4.58,2.78-.62-1.35-3.96h0Z"/>
  <path class="st0" d="M88.13,15.66v12.46l-3.93.88v-12.46l-3.93.88v-3.49l11.79-2.64v3.49l-3.93.88Z"/>
  <path class="st0" d="M93.51,26.92v-15.96l3.93-.88v15.95l-3.93.88h0Z"/>
  <path class="st0" d="M109.94,21.57c-1.17,1.42-2.51,2.36-4.47,2.8-1.95.44-3.3.11-4.47-.79-1.68-1.3-1.61-3.56-1.61-5.96s-.07-4.62,1.61-6.68c1.17-1.43,2.51-2.36,4.47-2.8,1.95-.44,3.3-.11,4.47.79,1.68,1.3,1.61,3.56,1.61,5.96s.07,4.62-1.61,6.68h0ZM107.04,11.98c-.29-.32-.85-.5-1.57-.34-.72.16-1.28.6-1.57,1.05-.36.55-.58,1.14-.58,4.05s.22,3.38.58,3.77c.29.31.85.52,1.57.36.72-.16,1.28-.62,1.57-1.07.36-.55.58-1.12.58-4.03s-.22-3.4-.58-3.79Z"/>
  <path class="st0" d="M122.56,20.4l-5.12-6.88v8.02l-3.93.88V6.48l3.44-.77,5.12,6.88V4.56l3.93-.88v15.95l-3.44.77h0Z"/>
  <path class="st0" d="M11.16,62.51l-1.1-2.96-6.31,1.41-1.1,3.45-2.58.58,5.86-17.27,1.95-.44,5.86,14.64-2.58.58h0ZM6.96,51.11l-2.49,7.64,4.92-1.1-2.42-6.54Z"/>
  <path class="st0" d="M15.61,61.52v-15.95l2.42-.54v13.78l7.71-1.72v2.17l-10.13,2.27Z"/>
  <path class="st0" d="M27.82,58.78v-15.95l2.42-.54v13.78l7.7-1.73v2.17l-10.13,2.27Z"/>
  <path class="st0" d="M40.04,56.05v-15.95l2.42-.54v15.95l-2.42.54Z"/>
  <path class="st0" d="M55.39,52.61l-1.1-2.96-6.31,1.41-1.1,3.45-2.58.58,5.86-17.27,1.95-.44,5.86,14.64-2.58.58ZM51.19,41.2l-2.49,7.64,4.92-1.1-2.42-6.54Z"/>
  <path class="st0" d="M69.66,49.41l-7.39-9.57v11.23l-2.42.54v-15.95l2.22-.5,7.39,9.55v-11.21l2.42-.54v15.95l-2.22.5h0Z"/>
  <path class="st0" d="M80.41,47.14c-1.66.37-3.1.09-4.2-.76-1.57-1.22-1.55-2.99-1.55-6.06s-.02-4.84,1.55-6.76c1.1-1.34,2.54-2.27,4.2-2.64,2.94-.66,5.14.57,5.7,3.63l-2.47.55c-.38-1.53-1.46-2.41-3.23-2.01-.94.21-1.8.76-2.36,1.49-.79,1.03-.96,1.99-.96,5.19s.18,4.08.96,4.76c.56.48,1.41.65,2.36.43,1.77-.4,2.87-1.76,3.26-3.46l2.45-.55c-.54,3.3-2.81,5.54-5.7,6.18h0Z"/>
  <path class="st0" d="M88.44,45.2v-15.95l10.22-2.29v2.17l-7.79,1.75v4.66l6.65-1.49v2.15l-6.65,1.49v4.8l7.79-1.75v2.17l-10.22,2.29h0Z"/>
</svg>