<?xml version="1.0" encoding="UTF-8"?>
<svg id="Layer_1" xmlns="http://www.w3.org/2000/svg" version="1.1" viewBox="0 0 563 168">
  <!-- Generator: Adobe Illustrator 29.8.5, SVG Export Plug-In . SVG Version: 2.1.1 Build 2)  -->
  <defs>
    <style>
      .st0 {
        fill: #fff;
        fill-rule: evenodd;
      }
    </style>
  </defs>
  <path class="st0" d="M79.53,167.05h7.7v-39.34s.29-32.5,23.1-51.88c22.77-19.39,51.01-22.81,51.01-22.81C149.07,21.94,118.86,0,83.53,0S17.95,21.94,5.71,53.02c0,0,27.94,3.42,51,22.81,22.81,19.38,23.11,51.88,23.11,51.88v39.07l-.31.28ZM53.85,50.46c0-15.96,13.14-29.08,29.38-29.08s29.08,13.13,29.08,29.08-13.12,29.08-29.08,29.08-29.38-13.12-29.38-29.08M51.31,160.78C21.09,148.24,0,118.3,0,83.52c0-.84.29-1.99.29-2.85,0,0,19.38.29,36.48,14.83,14.82,12.83,14.54,37.05,14.54,37.05v28.23ZM166.76,80.67c0,.86.29,2.01.29,2.85,0,34.78-21.37,64.43-51.32,77.26l-.29-28.23s0-24.22,14.81-37.05c16.81-14.54,36.5-14.83,36.5-14.83M526,131.6h7.76c10.59,0,13.01-10.93,13.01-15.77,0-7.85-4.05-9.77-9.48-9.77h-5.94l-5.35,25.54ZM517.92,92.62h24.15c9.6,0,21.73,6.02,20.85,23.13-.89,17.46-11.83,29.27-30.01,29.27h-25.93l10.94-52.4ZM465.97,92.62h15.98l9.85,28.62h.15l5.89-28.62h15.34l-11.01,52.4h-15.85l-9.63-29.35h-.15l-6.09,29.35h-15.34l10.87-52.4ZM424.79,126.32h10.06l-1.78-15.72h-.14l-8.14,15.72ZM428.75,92.62h15.85l8.14,52.4h-15.86l-.88-7.48h-17.08l-4.05,7.48h-16.43l30.31-52.4ZM368.41,92.62h16.17l-8.08,38.97h23.19l-2.8,13.42h-39.34l10.86-52.4ZM342.72,139.97l-.15-.15c-3.36,4.55-8.58,6.46-14.16,6.46-18.34,0-21.29-15.56-21.29-22.1,0-16.44,9.4-32.81,29.95-32.81,11.73,0,21.59,5.97,21.71,19.6h-15.26c-.42-4.83-3.28-6.52-7.41-6.52-8.86,0-12.83,9.46-12.83,18.48,0,6.17,2.64,10.28,9.16,10.28,4.36,0,8-1.52,9.64-5.81h-7.36l2.36-11.21h21.43l-6.03,28.82h-10.18l.42-5.04ZM262.29,92.62h15.99l9.85,28.62h.13l5.87-28.62h15.35l-11,52.4h-15.88l-9.61-29.35h-.15l-6.07,29.35h-15.35l10.86-52.4ZM214.14,92.62h43.29l-2.7,13.44h-27.15l-1.42,6.52h25.18l-2.58,12.5h-25.24l-1.38,6.52h27.75l-2.8,13.42h-43.88l10.93-52.4ZM425.44,35.04h-14.54l2.8-13.46h45.22l-2.78,13.46h-14.54l-8.06,38.95h-16.18l8.08-38.95ZM376.18,44.49h8.52c5.36,0,7.85-2.72,7.85-5.86,0-2.07-1.24-4.56-5.42-4.56h-8.73l-2.21,10.42ZM365.03,21.59h26.57c9.69,0,17.1,2.65,17.1,13.73,0,7.64-4.69,13.22-12.25,14.46v.14c4.77,1.33,5.42,5.81,5.42,10.72s-.58,10.29.73,13.36h-15.39c-.61-1.32-.68-2.78-.68-5.15s.82-5.72.82-8.35-2.07-4.77-6.55-4.77h-6.98l-3.79,18.27h-15.87l10.86-52.41ZM327.61,62.19c9.68,0,12.82-11.47,12.82-19.24,0-4.77-1.81-9.55-8.13-9.55-9.69,0-12.85,11.46-12.85,19.24,0,4.77,1.84,9.55,8.16,9.55M332.74,20.35c14.83,0,23.84,6.96,23.84,22.96,0,17.62-11.59,31.93-29.42,31.93-14.83,0-23.85-7.85-23.85-22.97,0-17.61,11.61-31.92,29.43-31.92M271.44,45.67h6.2c6.44,0,8.58-2.41,8.58-5.94,0-4.04-3.62-4.69-6.98-4.69h-5.49l-2.31,10.63ZM260.51,21.59h26.02c9.6,0,15.82,5.28,15.82,16.89,0,10.56-8.88,19.65-22.68,19.65h-10.87l-3.29,15.86h-15.91l10.91-52.41ZM237.18,37.46c.06-2.14-.67-3.44-1.82-4.33-1.18-.9-2.88-1.18-4.71-1.18-2.74,0-6.26.81-6.26,4.26,0,3.98,7.88,4.18,13.01,6.01,9.11,3.23,12.2,8.23,12.2,14.46,0,12.63-12.26,18.57-23.64,18.57-12.04,0-22.89-5.51-22.24-18.85h15.62c0,2.85.66,4.61,2,5.94,1.4,1.16,3.3,1.31,5.94,1.31,3.16,0,7.04-1.6,7.04-5.06,0-3.8-5.35-4.33-12.6-6.74-6.41-2.14-12.57-5.51-12.57-14.24,0-11.81,11.45-17.24,22.02-17.24,11.15,0,21.21,4.18,20.92,17.1h-14.91Z"/>
</svg>